<?xml version="1.0" standalone="no"?>
<!DOCTYPE svg PUBLIC "-//W3C//DTD SVG 1.1//EN" "http://www.w3.org/Graphics/SVG/1.1/DTD/svg11.dtd" >
<svg xmlns="http://www.w3.org/2000/svg" xmlns:xlink="http://www.w3.org/1999/xlink" version="1.1">
<metadata></metadata>
<defs>
<font id="flowbold" horiz-adv-x="757" >
<font-face units-per-em="2048" ascent="1536" descent="-512" />
<missing-glyph horiz-adv-x="614" />
<glyph horiz-adv-x="0" />
<glyph horiz-adv-x="682" />
<glyph unicode=" "  horiz-adv-x="614" />
<glyph unicode="&#x09;" horiz-adv-x="614" />
<glyph unicode="&#xa0;" horiz-adv-x="614" />
<glyph unicode="!" horiz-adv-x="630" d="M88 47q-14 22 4 53q21 44 71 65t103 13q46 -5 82.5 -42.5t16.5 -80.5q-13 -37 -55.5 -60t-80.5 -15q-44 -10 -84.5 7t-56.5 60zM221 453q39 155 99.5 470t99.5 470q15 67 64 70q43 2 78 -43q38 -49 24 -105q-35 -142 -95 -459t-104 -483q-18 -69 -71 -67q-44 2 -77 47 q-33 48 -18 100z" />
<glyph unicode="&#x22;" horiz-adv-x="634" d="M88 1069q52 147 125 295q22 41 59 62.5t80 17.5q40 -2 69.5 -31.5t12.5 -66.5q-62 -116 -125 -297q-19 -51 -88 -70q-67 -18 -110 9q-40 27 -23 81zM395 1030q16 51 55 160t56 168q15 53 77 75q60 21 102 -5q43 -27 26 -89q-16 -55 -54.5 -163.5t-54.5 -163.5 q-16 -53 -79 -75q-60 -22 -102 4q-43 27 -26 89z" />
<glyph unicode="#" horiz-adv-x="1130" d="M43 515.5q0 32.5 19 57.5t53 29q18 3 149 14q22 75 37 150q-109 -31 -176 -4q-31 14 -42 43.5t-1 60.5t29.5 58t51 39t62.5 0q39 0 125 8q29 151 41 254q8 41 37 72.5t72 41.5q37 7 71.5 -12t30.5 -57q-22 -154 -51 -291q47 2 143 2q16 59 70 281q18 68 70 67 q45 0 79 -45q34 -46 21 -98q-39 -156 -51 -207q29 0 88 -1t88 -1q63 -2 70 -57q6 -52 -34 -103q-38 -48 -85 -47q-29 0 -89.5 2t-89.5 2q-26 -94 -38 -156q47 2 122 17q52 9 92.5 -39.5t37 -105.5t-55.5 -68q-90 -19 -258 -27q-31 -122 -82 -301q-18 -69 -71 -68 q-44 1 -76 45q-34 46 -19 99q6 24 60 225q-21 0 -65 2t-66 2q-4 -17 -68 -282q-11 -52 -71 -78q-58 -25 -99.5 -2.5t-28.5 82.5q6 25 29 122t33 150q-8 -2 -18.5 -3t-23.5 -1.5t-20 -1.5q-31 -4 -56.5 15.5t-35.5 51t-10 64zM465 612q24 0 67.5 -1t65.5 -1q7 28 21.5 83.5 t21.5 82.5q-90 0 -135 -2q-30 -115 -41 -162z" />
<glyph unicode="$" horiz-adv-x="923" d="M-81 182q2 29 20.5 54.5t48.5 42.5q30 22 75 19t66 -36q0 -3 2.5 -7.5t3.5 -6.5q25 -16 96 -45l12 -4t15 -4q64 340 98 493q-122 100 -172 205q-55 119 -29 238.5t126 207.5q101 91 237 113q19 95 23 119q7 44 32.5 79t65.5 36q40 0 61.5 -35t12.5 -72q-4 -47 -23 -131 q93 -12 189 -53q59 -25 40 -82q-16 -48 -69 -78q-55 -31 -100 -12q-52 27 -99 37q-72 -346 -96 -451q11 -9 49 -39t54 -43.5t43 -38t44 -45.5t29 -43q55 -94 48 -191t-54 -179.5t-130 -142.5t-179 -79q-27 -8 -60 -8q-12 -78 -14 -121q-7 -41 -34 -76t-66 -36t-60 33t-16 73 q13 90 16 127q-96 13 -166 53q-8 4 -38 18t-49 26t-31 28q-24 28 -22 57zM356 1118q-11 -94 54 -176q15 60 71 326q-19 -3 -37 -17q-34 -20 -59 -56t-29 -77zM430 184q78 10 126 55t52 128q5 60 -23 108t-81 94q-46 -205 -74 -385z" />
<glyph unicode="%" horiz-adv-x="1396" d="M79.5 1154q38.5 115 147.5 192q45 32 96 56t108 37.5t113.5 3t98.5 -47.5q49 -47 4 -103q44 -11 58 -59q31 -132 -17 -250.5t-164 -191.5q-118 -79 -246 -43t-186 167q-51 124 -12.5 239zM166 62q3 25 12 51q20 51 56 105.5t64 89t79 91.5q117 125 235 291 q95 130 261.5 378t218.5 323q24 32 61 42t70 -16q27 -35 22.5 -74.5t-28.5 -74.5q-70 -99 -224.5 -329.5t-240.5 -350.5q-135 -185 -242 -299q-48 -52 -72 -79.5t-56.5 -76t-49.5 -94.5q-13 -36 -51.5 -59t-73.5 -7q-25 12 -34.5 38t-6.5 51zM275.5 1109q-6.5 -59 27.5 -110 q27 -39 50.5 -59t53.5 -18t58 41q34 45 38 102.5t-11 108.5q-8 31 10 63q-19 4 -31 16q-23 20 -67 1t-78 -46q-44 -40 -50.5 -99zM708.5 305q8.5 70 41.5 131q77 148 206 219q57 34 121 47t156 19q40 2 68.5 -22.5t19.5 -63.5q-1 -1 -2.5 -7.5t-3.5 -9.5h4 q47 -62 53.5 -138.5t-17.5 -145.5t-71 -135q-70 -98 -175.5 -161t-209.5 -42q-74 16 -121.5 64.5t-62.5 111.5t-6.5 133zM924 242q10 -23 29 -45.5t32 -22.5q27 0 62 25q47 44 73 84q71 134 23 198q-23 26 -17 51q-64 -10 -108.5 -40t-73.5 -93q-46 -104 -20 -157z" />
<glyph unicode="&#x26;" horiz-adv-x="1263" d="M-19 197q-45 109 1 233q44 119 141 221t221 180q14 7 42.5 23t43.5 23q-41 80 -53 137q-18 62 -14 125.5t23.5 118t63.5 98.5t107 67q57 23 126 19.5t131.5 -23.5t115 -63.5t76.5 -100.5q17 -40 18 -80.5t-12.5 -77t-35.5 -70.5t-53 -65t-62 -56t-66 -48 q-17 -10 -50 -28.5t-47 -26.5q74 -121 93 -164q44 -98 75 -150q22 22 61 61.5t71 71.5t61 60q43 38 115 17q62 -17 83 -58q20 -40 -20 -76q-112 -108 -166 -166q-26 -26 -88 -84q71 -95 158 -188q50 -54 7 -95q-36 -35 -100 -33q-53 2 -83 34q-102 111 -134 149 q-367 -288 -681 -149q-124 55 -169 164zM179 250.5q11 -52.5 69 -74.5q98 -37 210 6t212 125q23 16 47 37q-54 82 -66 107q-25 47 -69 133.5t-62 120.5q-132 -77 -201 -154q-31 -30 -64.5 -80t-60 -109t-15.5 -111.5zM594 1184q-26 -94 16 -209q2 0 3.5 1t2.5 1 q44 28 71.5 48t60 54.5t45.5 69.5q15 43 -4.5 78.5t-63.5 42.5q-48 6 -84.5 -17.5t-46.5 -68.5z" />
<glyph unicode="'" horiz-adv-x="307" d="M84 1022q7 57 38.5 165.5t39.5 160.5q7 55 73 83q63 27 113 8q47 -19 39 -71q-9 -57 -38.5 -165t-39.5 -163q-9 -53 -74 -81q-64 -27 -113 -8q-48 18 -38 71z" />
<glyph unicode="(" horiz-adv-x="602" d="M49 451q22 179 90 366.5t160.5 348t208.5 311.5q32 44 106 41q67 -4 98 -40q27 -35 -5 -77q-427 -557 -437 -1041q-7 -204 41 -350q18 -61 56 -135q6 -13 19 -32t20.5 -34.5t7.5 -31.5q0 -53 -56.5 -77t-113 -4.5t-56.5 71.5v4q1 -4 17 -41q-104 164 -141 353t-15 368z " />
<glyph unicode=")" horiz-adv-x="550" d="M-155 -271q-22 41 16 81q187 195 296 431.5t124 497.5q21 338 -97 672q-13 36 21.5 61t73.5 29q45 0 80.5 -21.5t48.5 -60.5q128 -372 94 -733q-23 -281 -142 -532t-319 -459q-39 -40 -111 -23q-62 15 -85 57z" />
<glyph unicode="*" horiz-adv-x="708" d="M84 1088q-12 56 23 112q31 50 79 53h33q-24 40 12.5 98.5t88 77.5t88.5 -18q9 -15 34 -55q37 32 93 71q25 18 50.5 29t52.5 9t42 -23q18 -32 0.5 -71.5t-53.5 -65.5q-37 -28 -45 -37h73q48 0 52 -53q4 -56 -37 -112q-32 -45 -74 -54q17 -52 -37 -118q-46 -58 -94 -67 q-40 -7 -55 31q-24 52 -43 98q-2 -3 -7.5 -10t-7.5 -12q-29 -39 -70 -63t-81 -17q-36 7 -43.5 44t16.5 69q3 4 10 13.5t13 16.5q-25 0 -41 -4q-59 -1 -72 58z" />
<glyph unicode="+" horiz-adv-x="1089" d="M43 727q7 41 48 64.5t83 23.5q139 0 283 6q40 223 53 305q11 59 71 76t112 -11.5t42 -82.5q-8 -47 -24.5 -140.5t-24.5 -140.5q43 0 129.5 2t128.5 2t76 -23.5t27 -64.5q-8 -41 -49 -64.5t-83 -23.5q-130 0 -262 -6q-3 -17 -47 -272q-11 -59 -70.5 -76t-111 11.5 t-41.5 82.5q7 42 21.5 124t21.5 124q-37 0 -109 -1t-108 -1h-10h-56q-42 0 -74.5 22.5t-25.5 63.5z" />
<glyph unicode="," horiz-adv-x="432" d="M-33 84q-17 53 9.5 100t77 67.5t100.5 6.5q80 -21 121.5 -75t29.5 -136q-12 -116 -115 -223q-30 -34 -71.5 -47t-83.5 6q-36 19 -40.5 57.5t25.5 67.5q56 64 62 108v2q-39 -5 -71.5 11.5t-43.5 54.5z" />
<glyph unicode="-" d="M43 643q-3 40 33.5 67t77.5 27h481q44 0 82 -21t39 -61q3 -39 -33.5 -65.5t-77.5 -26.5h-481q-45 0 -82.5 20t-38.5 60z" />
<glyph unicode="." horiz-adv-x="321" d="M-39 102q2 57 56 89.5t116 9.5q55 -24 66 -117q-6 -40 -39 -65.5t-78 -30.5q-43 -7 -82.5 25t-38.5 89z" />
<glyph unicode="/" horiz-adv-x="872" d="M-119.5 -59q5.5 28 19.5 53q54 91 215.5 364.5t242.5 407t216.5 344t256.5 377.5q42 58 93.5 48.5t64.5 -60t-20 -107.5q-99 -135 -194.5 -278t-201.5 -315.5t-171 -281t-191.5 -323.5t-173.5 -295q-13 -22 -34.5 -36.5t-46 -17t-46.5 16.5q-22 17 -28.5 46t-1 57z" />
<glyph unicode="0" horiz-adv-x="1140" d="M115 227q-71 218 8 492q52 184 122 331.5t179 256.5q133 133 285 133q104 2 195 -55.5t143.5 -152.5t52.5 -200q0 -247 -61 -467.5t-199 -376.5q-90 -101 -212 -155.5t-251 -38.5q-99 15 -165.5 75.5t-96.5 157.5zM297.5 437.5q3.5 -80.5 26.5 -136.5q33 -86 105 -116.5 t159 12.5q139 75 229 329q19 55 37.5 134t34 175.5t8 179.5t-42.5 118l-19.5 19.5l-21 21t-20 19t-23 20t-22 16t-25 15t-24.5 9.5t-27 7q-37 0 -71.5 -21t-64 -62t-46 -68.5t-39.5 -72.5q-137 -279 -150 -458q-7 -60 -3.5 -140.5z" />
<glyph unicode="1" horiz-adv-x="729" d="M-76 92q14 40 49 67t76 27h205q103 542 203 963q-116 -92 -224 -168q-59 -42 -94 6q-30 41 -19 103q10 52 44 77q198 144 401 308q41 31 70.5 15.5t43.5 -55.5t5 -75q-118 -468 -258 -1174h178q40 0 56 -34t6 -72q-16 -41 -51 -68.5t-78 -27.5h-553q-39 0 -55.5 36 t-4.5 72z" />
<glyph unicode="2" horiz-adv-x="911" d="M-80 100q9 57 96 127q70 58 140 125q153 144 272 279q152 175 219 284q84 139 92 220q4 43 -32.5 82.5t-83.5 48.5q-126 24 -258 -74q-55 -43 -114 -21q-45 17 -53 55q-7 47 46 87q79 61 173.5 98.5t200.5 43t191 -49.5q208 -126 111 -379q-81 -209 -328 -479 q-97 -114 -252 -262q-20 -18 -60 -55.5t-61 -55.5q29 0 86 1t86 1q51 0 158 -1t162 -1q72 -1 81 -52q8 -44 -32 -87q-39 -42 -92 -41q-156 2 -461 2q-10 0 -41.5 -2t-54.5 -2.5t-56.5 0.5t-56.5 7.5t-44 18t-30 32.5t-4 50z" />
<glyph unicode="3" horiz-adv-x="894" d="M-100 184q5 39 35 65.5t65 6.5q75 -38 164.5 -52t174 -2t154.5 62t99 133q20 64 20 113l-2 17q-3 23 -4 28v4q0 2 -2 5.5t-2 4.5l-2 6l-2 3q-50 50 -72 59q-40 19 -96.5 20.5t-97.5 -4.5q-29 -1 -53.5 20.5t-36.5 52t-11.5 64t17.5 54.5q217 243 350 383q-52 1 -152.5 5 t-148.5 5q-52 2 -81.5 57.5t-14.5 110t73 53.5q39 -1 187.5 -7.5t189 -6.5t187.5 2q47 3 73.5 -37t23 -90.5t-31.5 -77.5q-76 -77 -364 -389q14 -5 45 -23q119 -71 161 -157q74 -177 17 -359q-36 -122 -123.5 -204t-197.5 -112.5t-232.5 -17.5t-231.5 70q-39 19 -60 56 t-17 79z" />
<glyph unicode="4" horiz-adv-x="1030" d="M11.5 463.5q-26.5 38.5 8.5 89.5q40 59 89 118t120 138t99 111q51 58 203.5 228.5t234.5 264.5q25 30 70 38.5t77 -15.5q50 -37 5 -105q-50 -230 -136 -704q90 0 179 -6q38 -1 57.5 -33t5.5 -68q-15 -39 -54.5 -63t-82.5 -21q-94 4 -142 4q-25 -143 -65 -338 q-8 -42 -39 -74.5t-74 -39.5q-38 -6 -65.5 19.5t-20.5 64.5q37 174 74 372q-197 0 -459 -14q-58 -5 -84.5 33.5zM297 621q128 8 293 8q43 237 80 411q-131 -145 -191 -211q-26 -31 -88 -100t-94 -108z" />
<glyph unicode="5" horiz-adv-x="927" d="M-31 94q-26 50 16 91t98 40t87 -41q5 0 14 -6h9q55 -14 108 -14q150 8 217 94q55 69 73 181t-24 190q-18 27 -29.5 41t-32.5 26t-46 11q-26 -2 -80 -9.5t-82 -9.5q-38 -2 -70 23t-28 63q18 118 106 565q9 45 57 68q13 30 37.5 41t59.5 -4q17 -8 43 -11t46 -2t49.5 4 t39.5 3q195 10 227 10q57 1 88 -62q28 -59 11 -112q-15 -47 -62 -47q-38 -1 -133 -5.5t-147 -4.5q-13 0 -37.5 -1t-44.5 -1t-37 2q-52 -265 -66 -345q83 11 137 -4q68 -18 124 -61.5t83 -106.5q54 -121 28.5 -279.5t-120.5 -258.5q-78 -84 -191.5 -128t-236.5 -42 q-36 2 -59 3.5t-65.5 8t-70 16.5t-55.5 29t-41 45z" />
<glyph unicode="6" horiz-adv-x="1036" d="M90 549q-14 32 0 57q0 29 6 56q14 162 135 309q144 186 332 321q98 67 184 105t177 39q61 0 93.5 -43t12 -86.5t-89.5 -44.5h4h2h1h1h-1h-1h-1h-1h-1h-1h-1h-1h-1h-1h-2h-1h-9q-6 -1 -23 -9q-45 -16 -78 -34q-85 -45 -166 -113q-187 -159 -280 -305q77 31 151.5 42 t153 -3.5t143.5 -57.5q80 -53 117.5 -147.5t30 -193.5t-49.5 -194.5t-110 -154.5q-87 -76 -210.5 -101.5t-233.5 11.5q-96 32 -158.5 107t-91.5 178q-34 127 -31 262zM311 522q0 -227 72 -321q22 -30 37 -38.5t47 -8.5q112 3 178 67q56 50 82 129.5t21 161.5q-5 108 -46 143 q-20 13 -38 17h-56q-155 -22 -297 -144v-6z" />
<glyph unicode="7" horiz-adv-x="854" d="M10 58q-20 54 4 96q35 59 418 690q180 304 203 344q6 6 12.5 17.5t9.5 15.5q-100 0 -151 -2q-23 0 -65 -1t-77 -1t-65 2q-29 1 -40.5 2t-34 6t-36 16.5t-22.5 30.5q-19 36 -17.5 82.5t31.5 73.5q25 27 68 16q2 -2 8 -2h2h6q27 -2 76 -2q137 0 205 2q31 2 104.5 3.5 t127.5 5.5t102 13q46 8 73.5 -33.5t23 -95.5t-39.5 -80q-10 -13 -21 -20q-33 -22 -59 -57t-58 -97t-40 -75q-185 -308 -207 -342q-32 -53 -172 -285.5t-213 -357.5q-37 -62 -93 -38q-43 20 -63 73z" />
<glyph unicode="8" horiz-adv-x="1021" d="M42.5 305q1.5 78 31.5 156q36 91 110 157.5t181 126.5q-54 63 -97 144q-78 160 -37 293q20 61 65.5 117t102.5 92q225 149 420 57q99 -49 138.5 -141t9.5 -199q0 -2 -2.5 -8t-3.5 -8v-19q-17 -107 -78.5 -186.5t-159.5 -149.5q111 -96 133 -200q25 -127 -10.5 -255 t-130.5 -198q-73 -54 -167.5 -86t-198.5 -26t-177 61q-65 48 -98 121t-31.5 151zM223.5 340q2.5 -55 30.5 -86q40 -45 107.5 -59.5t132.5 -1.5q157 32 174 104q39 128 -19 197q-40 52 -133 118q-56 -27 -96 -53q-46 -24 -68 -36.5t-56 -40t-52 -56.5q-23 -31 -20.5 -86z M399 1149q-12 -29 8 -78.5t45 -84.5t52 -66q24 -28 67 -62q58 36 72 45q5 3 24.5 16t29 20t26.5 20.5t26 24.5t17 25.5t10 28.5t15 45q-3 20 2 47q12 41 -11.5 72.5t-64.5 44.5t-86 19.5t-76 -2.5q-44 -12 -92 -45t-64 -70z" />
<glyph unicode="9" horiz-adv-x="1046" d="M84 72q3 43 32.5 75.5t71.5 45.5q278 85 398 215q88 95 137 227q-367 -178 -512 57q-71 112 -70.5 283.5t72.5 277.5q126 189 358 189q54 1 93 -1t92 -10t96.5 -29t73.5 -54q99 -106 73 -310q-33 -276 -102 -444q-177 -436 -723 -598q-37 -12 -65 13.5t-25 62.5z M344 1096q-3 -69 2 -123q1 -6 3.5 -26t3.5 -25.5t4.5 -22.5t5.5 -23t7 -19t10 -19.5t12.5 -16.5t17 -18t20.5 -15q32 -22 72.5 -26t74.5 3.5t80 29.5t71 37.5t65 41.5q24 122 16 207q-6 65 -37 100t-98 50q-112 19 -195 8q-75 -12 -106 -51q-8 -12 -18 -40.5t-11 -51.5z" />
<glyph unicode=":" horiz-adv-x="485" d="M43 102q2 57 56 89.5t116 9.5q55 -24 66 -117q-6 -40 -39 -65.5t-78 -30.5q-43 -7 -82.5 25t-38.5 89zM209 891q5 56 28 88.5t80 42.5q42 0 80.5 -23t46.5 -63q0 -67 -35.5 -112t-103.5 -33q-41 7 -71.5 34.5t-24.5 65.5z" />
<glyph unicode=";" horiz-adv-x="483" d="M0 -133.5q4 28.5 17.5 51.5t33.5 43l-11 -13q1 1 2 3q14 15 19 20q-21 14 -22 15q-30 29 -27 68.5t29 70.5q23 27 56 46.5t71 23.5t68 -23q56 -49 43 -141q-20 -103 -136 -219q-28 -27 -67.5 -28.5t-63.5 30.5q-16 24 -12 52.5zM206.5 849q-17.5 42 6.5 97q21 55 78.5 82 t109.5 -4q15 -13 31 -37q22 -67 -8 -110q-15 -36 -56.5 -56.5t-84.5 -17.5q-59 4 -76.5 46z" />
<glyph unicode="&#x3c;" horiz-adv-x="1058" d="M42.5 626.5q-3.5 36.5 14 72t47.5 63.5q77 74 183 140t198 108t206 102t194 117q71 50 110 12q31 -31 17 -88q-13 -54 -60 -86q-142 -105 -407 -233q-181 -95 -213 -115q80 -40 254 -111t260 -114q28 -14 34.5 -46t-7 -66t-36.5 -64.5t-54 -42t-60 0.5q-76 38 -304 131.5 t-341 163.5q-32 19 -35.5 55.5z" />
<glyph unicode="=" horiz-adv-x="1116" d="M45 588q7 42 39 74q24 23 55 27t68.5 0t56.5 -1q93 14 188.5 17.5t241.5 0t189 -3.5q50 0 64 -56q15 -58 -17 -115q-34 -57 -92 -58q-46 0 -132 2t-156.5 2t-133.5 -4q-11 -1 -85.5 -9t-131.5 -9q-22 -27 -49 -30t-58 24q-27 26 -40.5 61.5t-6.5 77.5zM94 934 q12 41 56 62.5t88 21.5q457 0 720 31q43 6 79.5 -10.5t35.5 -59.5q1 -36 -38 -68t-79 -37q-123 -14 -273.5 -21t-238 -8t-270.5 -1q-40 0 -68 25t-12 65z" />
<glyph unicode="&#x3e;" horiz-adv-x="1118" d="M52 285q-23 41 1 102q21 56 68 78q193 99 569 246q-56 27 -158 78t-185.5 91.5t-158.5 75.5q-29 13 -36.5 45.5t4.5 67t33 65.5t52 45.5t60 2.5q77 -36 226.5 -111.5t270.5 -131.5t236 -99q33 -14 39.5 -46.5t-8.5 -67t-42 -65.5t-56 -43q-116 -54 -393.5 -163.5 t-421.5 -182.5q-72 -37 -100 13z" />
<glyph unicode="?" horiz-adv-x="835" d="M86 106q27 59 89 72t110 -33q21 -18 35.5 -46t7.5 -52q-6 -37 -40.5 -59.5t-76.5 -20.5q-50 0 -93 42.5t-32 96.5zM152 1276q0 53 42 94.5t103.5 63t122 31.5t106.5 8q129 -5 216.5 -82t91.5 -203q5 -199 -185 -426q-26 -28 -86 -85t-97 -95.5t-74 -97t-46 -115.5 q-8 -40 -40 -65t-68 -9q-37 16 -50 56.5t-4 80.5q14 75 53 144.5t90 126t103.5 108.5t106 115t84.5 123q94 176 -50 194q-130 19 -252 -41q-24 -53 -73 -45q-6 2 -15 2q-79 17 -79 117z" />
<glyph unicode="@" horiz-adv-x="1921" d="M84.5 264.5q-5.5 111.5 8 218.5t44.5 219q56 217 179 388t311 256q358 123 590 106q110 -9 209.5 -50.5t176.5 -106t138 -149.5t93 -182t43.5 -202.5t-11.5 -210.5q-15 -81 -42.5 -156.5t-71 -147.5t-98.5 -127t-129.5 -91.5t-160.5 -44.5q-43 -1 -82.5 -2.5t-82 10.5 t-71.5 37q-36 34 -43 96q-97 -74 -188 -100q-46 -15 -89.5 -22t-90 -3.5t-84.5 28.5t-58 72q-66 158 -10 406q51 232 148 336q84 88 187.5 131.5t216.5 28.5t202 -99h2q35 5 58.5 -14.5t23.5 -65.5q-3 -57 -17 -131q-1 -7 -4 -20.5t-4 -20.5q-6 -22 -22 -77.5t-24 -86 t-19.5 -76.5t-18.5 -87.5t-10 -81.5l-2 -49q75 -30 166 1.5t135 96.5q77 116 98 297q5 62 -4.5 132.5t-39 150t-76 149.5t-122 132t-169.5 97q-191 70 -557 -63q-117 -44 -203 -132t-134 -193.5t-69 -233.5q-28 -184 -28 -291q24 -269 190 -402q140 -113 374 -156t408 15 q37 12 64 -15t24 -65q-3 -42 -32.5 -73.5t-73.5 -45.5q-116 -35 -258.5 -35.5t-280 31t-261 100t-197.5 163.5q-70 87 -108 193.5t-43.5 218zM733.5 343q-1.5 -25 0.5 -41t5 -35.5t10.5 -34t18.5 -23.5q73 -55 244 82q45 36 73.5 94t52.5 134.5t42 113.5q12 30 16 88 q-15 4 -27 16q-43 41 -109 60t-132 0.5t-97 -80.5q-73 -133 -88 -271q0 -4 -3 -28.5t-4 -37t-2.5 -37.5z" />
<glyph unicode="A" horiz-adv-x="1130" d="M-58 80l-2 18q0 33 17 62q101 183 340 601t362 644q12 24 39 31q6 2 21 2q38 -1 68 -38t32 -77v-2v-12q15 -349 78 -713h25h10q46 0 62 -36q9 -19 8 -41q0 -23 -9 -47q-18 -50 -57 -73q43 -197 63 -276q5 -25 6.5 -51t-11.5 -50t-40 -32q-11 -3 -21 -3q-27 0 -51 19 q-34 27 -44 64q-18 68 -72 309q-22 0 -111 -1t-126.5 -1.5t-104.5 -4.5t-121 -10q-94 -166 -203 -358q-21 -32 -55 -32h-5q-36 2 -63 32q-29 33 -35 76zM430 584q98 6 295 6q-39 231 -57 409q-33 -59 -238 -415z" />
<glyph unicode="B" horiz-adv-x="1083" d="M47 86q2 3 5 9t5 9q60 211 126 614.5t108 575.5q9 37 40 66.5t70 36.5q93 46 208 55q27 2 53 3q84 0 157 -23q95 -29 160 -103q65 -75 89 -169q14 -55 14 -112q0 -40 -7 -81q-27 -163 -178 -252q33 -20 64 -51q53 -57 67 -136q6 -33 6 -65q0 -45 -11 -87 q-19 -73 -60 -143q-28 -50 -66.5 -90.5t-87 -67.5t-97.5 -46.5t-111.5 -30t-112.5 -16.5q-51 -6 -119 -6h-33q-47 0 -80 2q-45 2 -109 4q-4 0 -10.5 -1t-9.5 -1h-7q-42 0 -65 32q-13 19 -13 42q0 15 5 32zM272 166q50 -2 95 -2q169 0 270 24q54 14 98 41l4 4q1 0 2 2t2 3 q1 0 9 9l6 5q12 14 26 39q37 74 37 129v8q0 71 -53 111q-67 47 -209 75q-116 -13 -197 -16q-60 -322 -90 -432zM399 827q120 6 246 31q47 13 74.5 22.5t69 28t69 45t41.5 60.5q12 29 12 57q0 38 -23 74q-40 62 -116 74q-54 10 -103 10q-116 0 -208 -53q-36 -180 -62 -349z " />
<glyph unicode="C" horiz-adv-x="1034" d="M91 418q-9 61 -9 120q0 73 14 142q67 404 260 592q183 183 446 183q120 0 257 -38q31 -9 46 -38q12 -22 12 -48q1 -8 -1 -15q-4 -34 -18.5 -64.5t-42.5 -46.5t-60 -7q-103 30 -197 36q-14 1 -27 0q-79 0 -163 -27q-98 -32 -164 -109q-71 -80 -115 -192.5t-61 -225.5 q-11 -66 -11 -124q0 -138 62 -230q42 -61 103 -94.5t134 -39.5q36 -3 70 -3q36 0 68 3q64 6 140 23q26 5 45.5 -14t26.5 -44.5t5 -47.5q-3 -44 -28.5 -76t-65.5 -41q-72 -16 -141 -22q-33 -3 -68 -3q-37 -1 -76 3q-75 6 -138.5 28t-121.5 66t-96 108q-65 108 -85 246z" />
<glyph unicode="D" horiz-adv-x="1222" d="M42.5 72.5q2.5 23.5 16 48.5t35.5 45q-3 22 0 47q60 349 189 1004q-19 10 -29 32q-7 16 -7 32q1 22 13 44q22 38 59 61q121 74 357 74h24q114 -4 197.5 -22.5t151.5 -71.5q71 -56 113 -138t52 -172q6 -51 6 -103q0 -39 -3 -77q-8 -88 -33 -174q-119 -398 -385 -575 q-208 -137 -493 -137q-99 0 -206 16q-31 6 -45.5 24.5t-12 42zM264 190q49 -4 94 -4q230 0 377 105q173 123 248 393q17 67 25 131q6 48 5 100q-1 17 -1 35q-2 71 -28.5 134t-76.5 106q-81 72 -248 72q-29 1 -55 1q-85 0 -137 -10q-2 0 -2 -4q-132 -647 -201 -1059z" />
<glyph unicode="E" horiz-adv-x="1034" d="M82 111.5q0 37.5 14 70.5q131 572 215 1168v8v2q-1 28 21 51t53 31q35 19 63 19q21 0 39 -11q342 0 512 4h7q36 0 70 -19q37 -21 38 -59v-8q0 -33 -31 -56q-35 -26 -75 -28q-170 -4 -510 -4q-9 -54 -32 -191.5t-36 -211.5q46 0 78 -1q32 0 52 1q38 1 130 5t131 5h4 q51 1 79 -53q19 -36 20 -74q0 -18 -6 -38q-16 -56 -68 -58q-29 -1 -154.5 -7t-153 -6t-153.5 2q-20 -101 -92 -440q58 -4 130 -4q151 0 368 18q5 1 10 1q45 0 69 -50q17 -34 18 -70q0 -20 -6 -42q-16 -58 -69 -64q-125 -11 -222 -16q-57 -3 -121 -3q-45 -1 -94 1 q-118 4 -224 20q-33 6 -53.5 38t-20.5 69.5z" />
<glyph unicode="F" horiz-adv-x="1067" d="M84 100q43 249 119 574q-14 28 -14 62q0 16 3 32q10 52 48 66q6 26 45.5 193.5t58.5 256.5q-53 30 -53 75q1 43 41 63q36 18 80 18h34q4 2 9 2q8 0 12 -2h612q40 0 75 -26q34 -26 34 -64q0 -41 -40 -61q-37 -19 -81 -19h-551q-77 -331 -100 -430q46 1 195 4.5t231 3.5 q53 0 80 -56q16 -34 16 -68q0 -22 -6 -44q-18 -56 -72 -57q-83 -1 -249 -5.5t-249 -5.5q-72 -329 -100 -510q-9 -44 -35.5 -78t-66.5 -34h-2q-38 0 -58 35q-17 29 -17 60q0 8 1 15z" />
<glyph unicode="G" horiz-adv-x="1232" d="M85 608q5 88 24 174q32 144 104 271t178 213q101 84 227 127q124 43 248 43h3q126 -1 259 -31q63 -15 63 -64v-7q-4 -47 -53 -84q-38 -28 -75 -28l-23 3q-117 29 -215 29q-186 0 -305 -103q-143 -126 -192 -336q-22 -88 -28 -174q-2 -23 -2 -47q0 -65 12 -134 q18 -96 65 -163q67 -98 190 -127q41 -9 76 -9q33 0 62 9q58 16 118 66q34 168 80 335q-17 0 -48.5 0.5t-57 0.5t-47.5 -1h-5q-36 0 -61 26q-20 21 -20 47q0 9 2 18q11 40 49.5 64t81.5 26h25q21 0 50.5 -0.5t54.5 -0.5h33q38 1 72 7q12 2 23 2q34 0 63.5 -18.5t29.5 -49.5 q0 -10 -3 -22q-93 -324 -127 -561q-6 -36 -41 -60.5t-74 -25.5h-4q-37 0 -68 16q-97 -49 -203 -59q-24 -3 -48 -3l-162 27q-106 35 -183 115q-59 61 -95 143t-47 170q-8 61 -8 122q0 27 2 54z" />
<glyph unicode="H" horiz-adv-x="1359" d="M86 72q55 232 127 594q-26 19 -26 53q0 11 3 24q12 51 56 84q50 266 102 498q9 43 40 76t73 39q7 1 14 1q29 0 52 -20t23 -50q0 -7 -1 -15q-39 -168 -109 -508l308 -2h134q173 0 173 2q48 244 92 493q9 44 33 72q18 21 45 21q9 0 18 -2q37 -10 59 -52q17 -31 17 -60 q0 -10 -2 -20q-53 -301 -238 -1228q-9 -44 -33 -72q-17 -21 -42 -21q-10 0 -21 3q-37 8 -59 50q-17 31 -17 60q0 10 2 21q17 90 53.5 270t53.5 270h-615q-82 -406 -116 -553q-11 -43 -41 -74.5t-72 -37.5q-7 -1 -14 -1q-28 1 -52 21q-22 19 -23 45q0 9 3 19z" />
<glyph unicode="I" horiz-adv-x="571" d="M88 92q129 532 244 1223q6 44 33 78t71 45q9 2 18 2q28 0 50 -18q25 -20 25 -50q0 -6 -1 -12q-132 -757 -252 -1276q-14 -57 -73 -83q-27 -12 -50 -12q-24 0 -43 13q-26 18 -26 56q0 16 4 34z" />
<glyph unicode="J" horiz-adv-x="669" d="M-78 89q9 56 58 91q24 18 48 18t46 -18q16 -11 31 -12.5t29 8t26 21t24 34t20 37t17.5 40.5t12.5 35t10 28q17 49 51 178q34 145 82 417t72 386q12 42 41 74q29 30 67 30h2q38 -1 57 -38q13 -26 13 -54q0 -10 -2 -21q-2 -9 -49 -287q-119 -705 -277 -960 q-97 -158 -211 -158q-68 0 -141 56q-29 31 -29 73q0 11 2 22z" />
<glyph unicode="K" horiz-adv-x="1130" d="M45 80q110 413 164 690q8 38 28 131t30.5 144.5t22.5 128.5t17 141q1 43 29.5 77t69.5 46q12 3 24 3q26 0 50 -12q35 -17 34 -53q0 -32 -14 -132q-10 -72 -17 -109t-26.5 -134.5t-22.5 -113.5q164 104 314 254t272 323q29 40 60 40q17 0 34 -12q41 -27 54 -87 q3 -16 3 -31q0 -35 -18 -61q-248 -346 -537 -559q65 -82 152 -232q80 -136 193 -352q11 -21 11 -45q0 -33 -21 -73q-30 -55 -73 -69q-10 -3 -18 -3q-32 0 -51 38q-141 266 -186 338q-3 6 -19.5 34.5l-22 38t-21.5 35.5t-24.5 38.5t-24 34.5t-27.5 35.5t-27.5 29.5t-30.5 29 q-6 -3 -18.5 -9.5t-18.5 -9.5q-12 -4 -16 -6q-55 -244 -127 -518q-9 -40 -45.5 -69.5t-79.5 -30.5h-5q-34 0 -56 26q-17 20 -17 46q0 9 2 20z" />
<glyph unicode="L" horiz-adv-x="1015" d="M43 92q-1 7 -1 14q0 43 50 64q62 169 106 355.5t92.5 454t69.5 366.5q11 52 76 75q33 13 63 13q27 0 51 -11q38 -17 38 -55q0 -8 -2 -18q-20 -99 -55.5 -287.5t-59 -307.5t-64.5 -280.5t-88 -294.5h529q44 -2 81.5 -23.5t43.5 -62.5q1 -7 1 -13q0 -29 -26 -49 q-32 -26 -71 -26q-105 2 -223 2t-262.5 -1t-223.5 -1q-42 0 -80.5 23t-44.5 63z" />
<glyph unicode="M" horiz-adv-x="1634" d="M84 70q167 710 268 1286q-1 6 -1 12q-1 40 41 70q43 31 93 31h12q57 -4 74 -52q50 -146 124.5 -418.5t99.5 -355.5q65 79 184 217t215.5 255.5t173.5 227.5v5q7 44 47 59q15 21 33.5 35.5t42.5 19.5t47 -10q35 -20 35 -72q21 -21 18 -59q-14 -156 -45 -339.5t-58 -312 t-75 -343.5t-70 -320q-11 -50 -71 -66q-23 -6 -45 -7q-35 0 -67 17q-42 22 -42 63q0 10 2 20q18 83 67 300.5t80.5 372t55.5 302.5q-55 -66 -161.5 -190t-191.5 -226.5t-155 -198.5q-49 -63 -95 -63q-18 0 -36 10q-21 10 -33 43q-13 13 -20 33q-61 169 -152 514 q-82 -413 -182 -830q-11 -42 -42 -71.5t-75 -36.5q-7 -1 -13 -1q-31 1 -59 19q-27 17 -26 44q0 7 2 16z" />
<glyph unicode="N" horiz-adv-x="1396" d="M86 98q101 640 244 1241q8 42 38 76t72 37h7q33 0 53 -29q16 -23 16 -50q0 -10 -2 -21q-1 -5 -3 -15.5t-3 -15.5q76 -154 215 -463t213 -459q128 537 190 910q8 53 69 73q27 9 53 8q32 0 62 -14q46 -21 45 -62q0 -7 -1 -14q-34 -196 -85 -437t-84.5 -385t-103.5 -433 q-8 -30 -35.5 -46.5t-61 -15t-64 13t-47.5 38.5t-9 61q1 5 6 25q-69 131 -140.5 282t-155.5 337.5t-132 287.5q-112 -537 -172 -915q-8 -60 -66 -91q-31 -17 -56 -17q-19 0 -35 9q-29 17 -29 58q0 12 2 26z" />
<glyph unicode="O" horiz-adv-x="1306" d="M84 541v22q0 318 115 527q95 172 262 261t377 89q198 0 309 -144q59 -76 89 -188q29 -106 30 -207v-9q-2 -106 -19 -208q-28 -152 -116 -292t-213 -245q-126 -111 -270 -167q-81 -31 -161 -32q-62 0 -122 19q-67 20 -118.5 67.5t-81 105t-48.5 131.5t-25.5 137.5 t-7.5 132.5zM311 801q-16 -102 -16 -198q0 -153 41 -290q49 -141 141 -172q33 -11 65 -11h2q30 0 64 13q36 13 67 30.5t63.5 43t58 49t49.5 49.5q114 126 162 265q37 106 38 230q0 38 -4 79q-3 52 -11 98t-27 97t-46.5 87t-72.5 60t-103 24q-93 0 -231 -63 q-53 -18 -95.5 -58t-70 -96t-45.5 -113.5t-29 -123.5z" />
<glyph unicode="P" horiz-adv-x="1187" d="M84 -29q56 241 131 607q-11 4 -25 12q-39 17 -49 46t5 56.5t45 49t63 24.5q50 244 108 551q-6 9 -6 22q0 27 23 58q7 41 39.5 69.5t75.5 34.5q26 3 51.5 -6.5t38.5 -30.5q83 11 157 11q237 0 375 -117q58 -47 86 -117q28 -68 27 -138q0 -75 -27 -147q-59 -159 -186 -265 q-128 -105 -284 -145q-100 -25 -203 -26q-58 0 -117 8q-57 -273 -117 -526q-9 -42 -40 -71t-75 -35q-7 -1 -14 -1q-30 0 -57 17t-27 45q0 7 2 14zM449 709q67 -14 128 -14q98 0 181 36q42 18 80 47q29 18 67 58q63 71 82 131q22 58 22 107q0 92 -75 157q-23 21 -70 37.5 t-94 21.5q-36 4 -79 4q-59 0 -130 -8q-62 -340 -112 -577z" />
<glyph unicode="Q" horiz-adv-x="1296" d="M90 643q16 169 53 305q-12 34 -12 72q5 93 52.5 170t122.5 128t159.5 82.5t173.5 43.5q61 10 116 10q139 0 246 -61q94 -54 149 -161.5t79 -236.5q18 -80 18 -170q0 -20 -1 -41q-5 -114 -29.5 -221t-78 -209t-128.5 -176q68 -43 145 -43h12q104 0 125 -69q3 -9 3 -18 q0 -27 -23 -49q-29 -30 -68 -32h-23q-192 0 -335 96q-82 -40 -170 -59q-80 -18 -160 -18h-17q-89 2 -171 40.5t-140 110.5q-105 131 -105 376q0 61 7 130zM262 444q3 -49 11 -91t35.5 -77t72.5 -51q66 -23 134 -23q73 0 149 27q-7 6 -27 25.5t-31 28.5q-6 -6 -8 -7 q-30 -18 -68 -18h-14q-46 4 -78 31q-28 24 -28 58v5q3 38 36 58q90 52 166 52q36 0 68 -11q19 -6 36.5 -15t36 -24t28 -24t30.5 -30.5t27 -27.5q2 0 2 -2q104 91 153 194q58 119 73 250q4 38 4 76q0 94 -26 186q-31 99 -70 142t-130 51q-31 4 -65 4q-72 0 -158 -17 q-126 -26 -209 -86q-6 -12 -9 -24q-130 -290 -139 -569q-3 -27 -3 -56q0 -17 1 -35z" />
<glyph unicode="R" horiz-adv-x="1140" d="M86 121q54 201 142.5 579t131.5 545q-73 0 -94 49q-9 15 -9 31q0 19 13 37q23 34 60 45q86 23 155.5 36.5t153.5 21.5q33 3 65 3q50 0 98 -8q79 -12 146 -45q106 -49 153 -147q39 -83 40 -182q0 -19 -2 -39q-27 -321 -394 -420q34 -48 97 -176q19 -46 66 -165.5 t75 -181.5q10 -21 10 -40q0 -30 -26 -52q-36 -30 -85 -30h-18q-62 6 -84 53q-27 60 -72 171.5t-57 139.5q-47 112 -76 160q-19 39 -30 53q-5 0 -17 15q-3 3 -2 3t4 -2q-3 3 -7.5 7t-6.5 6q-90 -4 -135 -4q-74 -313 -131 -525q-17 -69 -67 -75q-6 -1 -11 -1q-37 0 -65 36 q-25 31 -25 69q0 16 4 33zM420 752q73 0 133 5.5t127 24.5t113.5 50t80 86.5t39.5 130.5q2 17 2 32q-1 59 -21 107q-26 62 -89 90q-54 22 -127 22q-58 0 -127 -14q-23 -89 -131 -534z" />
<glyph unicode="S" horiz-adv-x="929" d="M-81 72v6q0 54 40 100q34 38 72 37q10 0 20 -2q41 -9 86 -17t113 -16q52 -6 101 -6h29q61 2 119 14t97.5 44t50.5 81q3 13 3 27q0 44 -28 94q-37 68 -94 127q-39 41 -106 91.5t-124 99t-93 102.5q-53 78 -63 156q-3 23 -3 44q1 52 19 98q26 64 77 121.5t121 99 t151.5 68.5t163.5 35q30 3 59 3q52 0 102 -9q80 -14 141 -51q20 -12 29.5 -32t7.5 -42t-11 -45t-25 -41t-35 -30.5t-40.5 -13.5t-42.5 10q-66 41 -164 49q-21 2 -43 1q-75 1 -149 -23q-94 -30 -144 -95q-16 -17 -20 -51q-1 -7 -1 -16q0 -27 13 -58q36 -55 92 -104.5 t123 -100.5t105 -90q61 -63 101.5 -136t56.5 -151q8 -36 8 -74q0 -42 -10 -86q-19 -82 -76 -153q-51 -64 -125.5 -104t-151.5 -55.5t-168 -15.5t-168 10.5t-158 29.5q-56 12 -58 70z" />
<glyph unicode="T" horiz-adv-x="1046" d="M92 1404q23 37 86 38q145 0 436.5 2t438.5 2q67 0 100 -51q16 -25 16 -48q0 -19 -9 -35q-22 -38 -85 -38t-189 -1t-188 -1q-35 -205 -119.5 -607.5t-119.5 -601.5q-13 -70 -64 -74q-5 -1 -9 -1q-40 0 -73 40q-30 35 -30 76q0 11 2 23q33 200 113.5 580.5t111.5 562.5 q-51 0 -154.5 -1t-154.5 -1q-67 0 -102 52q-16 26 -16 49q0 18 9 35z" />
<glyph unicode="U" horiz-adv-x="1173" d="M86 512q9 132 42.5 293.5t58.5 251t83 286.5q16 53 80 79q32 13 58 13q24 0 43 -11q27 -17 27 -50q0 -14 -5 -31q-6 -22 -29.5 -99t-32 -106t-27 -96.5t-28 -107.5t-22 -98t-20.5 -109t-13 -102q-8 -76 -8 -139q0 -290 170 -298q19 -2 38 -2q55 0 105 14q68 18 115 58 q36 32 63 90q33 72 52 129q43 153 93 447t81 419q12 53 72 80q31 14 58 14q23 0 43 -11q31 -17 31 -54q0 -13 -4 -29q-31 -129 -106 -550q-2 -12 -10 -56.5t-11.5 -61.5t-11 -55.5t-13.5 -61t-14.5 -55t-17.5 -60t-20 -54.5q-51 -124 -137 -216.5t-207 -142.5 q-96 -39 -200 -39q-27 0 -56 3q-79 8 -139 42t-96 83.5t-57 115.5q-22 65 -28 133q-3 35 -2 74q0 34 2 70z" />
<glyph unicode="V" horiz-adv-x="1062" d="M84 1378q-1 5 -1 10q0 48 52 60q15 3 30 3q41 0 83 -24q52 -31 57 -77q55 -504 125 -961q66 118 144.5 266t118.5 224.5t145 282t123 239.5q34 45 92 47h7q54 0 96 -38q29 -25 29 -53q0 -16 -9 -32q-31 -60 -131 -255t-146.5 -284.5t-129 -244.5t-154 -281t-144.5 -248 q-17 -32 -51 -37q-8 -1 -17 -1q-25 0 -49 12q-32 16 -58.5 42.5t-31.5 53.5q-114 662 -180 1296z" />
<glyph unicode="W" horiz-adv-x="1503" d="M84 1346v8q0 34 22 66q24 35 62 34h2q40 0 61 -35t23 -78q8 -169 26.5 -476t24.5 -416q190 428 467 956q20 39 56 49q10 3 21 2q25 0 45 -16q30 -23 34 -66q18 -140 31.5 -292.5t27.5 -359.5t21 -294q33 64 98 191t98 192q12 25 53 107.5t67.5 138t49.5 110.5 q47 111 58 144q3 7 16 45q1 2 3 13l4 19l-1 -14q4 44 25.5 78.5t62.5 34.5q38 -1 62 -40q20 -32 21 -64q0 -6 -1 -13q-8 -64 -26.5 -130.5t-50 -139.5t-55 -122t-66.5 -133t-60 -118q-14 -27 -146.5 -284.5t-195.5 -393.5q-18 -39 -54 -49q-11 -3 -21 -3q-23 -1 -45 15 q-30 22 -36 66q-20 187 -43.5 528t-31.5 438q-307 -608 -478 -1036q-11 -29 -39.5 -45t-56.5 -4q-52 19 -61 111q-9 165 -36 601.5t-38 674.5z" />
<glyph unicode="X" horiz-adv-x="1044" d="M-110 28q-11 15 -11 32q0 22 19 46q190 244 530 654q-139 331 -213 528q-6 16 -6 33q0 38 32 80q39 51 86 56h8q40 0 58 -48q23 -63 187 -469q180 211 368 451q31 39 92 39q10 0 20 -1q67 -6 95 -44q11 -15 11 -31q0 -21 -19 -45q-197 -251 -479 -582q164 -403 235 -602 q5 -16 5 -32q0 -40 -33 -82q-40 -51 -86 -55h-5q-40 0 -57 48q-85 235 -209 541q-256 -303 -424 -522q-30 -39 -91 -39q-9 0 -19 1q-66 5 -94 43z" />
<glyph unicode="Y" horiz-adv-x="980" d="M86 1335q-10 31 5.5 60t45.5 44.5t63.5 21.5t62.5 -7.5t38 -44.5q35 -107 93.5 -305.5t84.5 -280.5q46 62 142.5 195t173 234.5t149.5 191.5q26 30 55 30q20 0 42 -14q44 -29 58 -87q4 -17 4 -33q0 -34 -20 -58q-105 -129 -288 -381t-271 -364q-6 -9 -10 -13 q-54 -315 -86 -444q-10 -43 -39.5 -76.5t-69.5 -36.5h-7q-34 0 -54 29q-17 23 -17 49q0 10 3 21q31 128 90 481q-4 6 -10 18q-48 142 -127 405.5t-111 364.5z" />
<glyph unicode="Z" horiz-adv-x="1017" d="M-137 59q-5 13 -5 25q0 22 15 41q23 30 61 33q157 192 468.5 549t453.5 528q-414 -4 -620 -4h-2q-62 0 -73 56q-2 12 -2 23q0 41 28 82q34 50 83 50q129 0 387 2t387 2q42 0 62 -27l12 -6q37 -14 41 -52q1 -5 1 -10q0 -32 -23 -57q-171 -211 -500 -590t-461 -538 q32 1 71 1q98 0 241 -4q201 -5 280 -5q40 0 78 -30.5t39 -68.5v-7q0 -34 -30 -50q-33 -18 -77 -18q-86 0 -243.5 4t-286.5 4t-244 -8h-12q-38 0 -74 16q-40 20 -55 59z" />
<glyph unicode="[" horiz-adv-x="622" d="M-74 -143q33 158 117 473.5t117 478.5q38 174 73 426q8 64 13.5 100.5t20.5 91t36 95.5q-4 6 -4 22q4 41 40 59.5t81 18.5q26 3 49 0q156 -9 219 0q40 5 82.5 -16t52.5 -60q11 -38 -19.5 -66.5t-70.5 -33.5q-89 -9 -229 -2q-12 -31 -20.5 -69.5t-12 -66.5t-8.5 -75.5 t-8 -69.5q-42 -256 -78 -418q-26 -126 -61 -265.5t-80 -309.5t-68 -264h108q41 0 65 -30t24 -73q0 -41 -26.5 -84t-64.5 -43h-247q-62 0 -90.5 47t-10.5 134z" />
<glyph unicode="\" horiz-adv-x="1073" d="M86 1412q10 41 43 69q17 16 42.5 26t53.5 6.5t41 -28.5q15 -32 88.5 -192.5t95 -207t87.5 -188.5t97 -206t90 -187t99.5 -204.5t93.5 -185t103 -196.5q28 -52 -14 -120q-35 -55 -82 -69q-49 -13 -74 33q-79 147 -153.5 295t-167.5 343t-135.5 285t-160.5 345.5 t-139 300.5q-18 40 -8 81z" />
<glyph unicode="]" horiz-adv-x="616" d="M-200.5 -174.5q15.5 57.5 69.5 57.5h240q25 150 53 304.5t63 334t57.5 293.5t66.5 332.5t61 302.5q-156 0 -199 14q-46 17 -52.5 66.5t34.5 83.5q27 24 60.5 34.5t66 9.5t69.5 -3q109 -10 150 -26q92 -34 73 -124q-219 -1055 -323 -1669q-4 -16 -5 -43.5t-2.5 -49.5 t-7 -43.5t-22 -33.5t-43.5 -12h-311q-54 0 -84 57t-14.5 114.5z" />
<glyph unicode="^" horiz-adv-x="915" d="M3 733q-5 57 30 98q237 275 456 605q33 43 77 39t65 -45q148 -344 272 -562q28 -51 -7 -114q-29 -53 -74 -64q-48 -12 -79 41q-91 158 -217 436q-184 -257 -374 -483q-54 -61 -103 -32q-39 24 -46 81z" />
<glyph unicode="_" horiz-adv-x="870" d="M-201 -350q11 42 52 65t86 23q135 5 403 0t403 0q40 3 66 -27t16 -69q-12 -41 -51 -63t-86 -25q-130 -4 -403.5 0.5t-403.5 -0.5q-40 0 -66 30t-16 66z" />
<glyph unicode="`" horiz-adv-x="407" d="M93.5 1364.5q29.5 53.5 86.5 70t103 -13.5q25 -23 44.5 -54.5t28.5 -54.5t23 -64.5t22 -61.5q14 -40 -4.5 -75.5t-58.5 -59.5q-21 -10 -49 -14.5t-56.5 4t-37.5 32.5q-6 15 -20 66t-29 81.5t-40 51.5q-42 39 -12.5 92.5z" />
<glyph unicode="a" horiz-adv-x="1044" d="M2 368q1 78 25 155t59.5 149.5t88 134.5t112 112.5t130.5 83.5t143 47q39 7 81 7q35 1 71 -5q80 -12 156 -51q28 -14 36.5 -35t8.5 -61q-1 -22 -6 -60.5t-6 -45.5q-34 -220 -102 -404q-14 -80 -14 -129q0 -45 12 -65q3 -1 6 0q28 0 117 53q24 16 45 16q28 0 51 -29 q27 -35 27 -84q0 -10 -1 -21q-6 -52 -41 -75q-23 -15 -38 -24t-39.5 -22t-44.5 -20t-43.5 -13t-46.5 -4.5t-44 8.5q-78 31 -110 133q-34 -39 -70 -68q-69 -57 -157 -73q-38 -7 -76 -7q-46 0 -90 12q-78 21 -141.5 82t-84.5 150q-14 70 -14 144v9zM240 476q-17 -63 -17 -121 q0 -62 19 -119q14 -39 46 -69t66 -30h19q67 26 129 131q155 267 188 609q-46 16 -69 16q-76 0 -139.5 -46.5t-133.5 -131.5q-74 -109 -108 -239z" />
<glyph unicode="b" horiz-adv-x="1069" d="M0 106.5q0 39.5 25 67.5q23 20 49 33q11 69 125 566t116 546q7 40 38.5 69t74.5 37q9 2 19 2q27 1 50 -15q26 -17 26 -47q0 -6 -1 -13q-39 -225 -82 -396q119 69 228 91q45 7 89 7h3q43 0 86 -16q45 -17 74 -51q35 -41 51 -96q15 -52 15 -100v-7q-1 -52 -5 -108 q-44 -473 -338 -629q-122 -63 -270 -63q-154 0 -336 69q-37 14 -37 53.5zM270 178q66 -20 139 -20h17q82 2 135 35q182 112 207 460q0 2 2 28t2 34.5t0.5 32.5t-2 36.5t-6.5 30.5t-12 30.5t-19 22.5q-14 14 -38 14.5t-53 -10.5t-59.5 -26.5t-62.5 -37t-57 -39t-48 -34.5 t-30 -22q-66 -285 -115 -535z" />
<glyph unicode="c" horiz-adv-x="792" d="M0 345q3 77 16 155q25 118 86 233t153.5 207t208.5 124q46 13 94 13q74 0 155 -30q49 -20 57 -82l2 -22q0 -48 -27 -86q-24 -33 -55 -33q-12 0 -26 5q-64 26 -123 26q-102 0 -187 -79q-63 -51 -106.5 -129t-63.5 -162q-15 -42 -15 -88q1 -9 1 -19q4 -56 20 -103.5 t57.5 -82t98.5 -40.5q23 -1 54 6t53.5 16t60 25t53.5 22q19 7 34 7q35 0 55 -38q14 -27 14 -58q0 -24 -9 -51q-17 -51 -57 -67q-150 -58 -265 -58q-147 0 -239 95q-52 55 -78 136q-23 72 -22 142v16z" />
<glyph unicode="d" horiz-adv-x="937" d="M9 270q-10 58 -10 111q0 56 11 106q22 138 82.5 257.5t161.5 197.5q99 75 219 99q59 12 117 12q60 0 119 -13q8 34 31.5 142t37.5 166q12 52 73 78q31 13 57 13q23 0 42 -10q28 -16 28 -52q0 -12 -3 -27q-160 -674 -219 -1250q-3 -42 -31.5 -73t-71.5 -43q-11 -2 -22 -2 q-25 0 -49 12q-31 17 -31 51v6q0 4 2 12.5t2 12.5q-26 -17 -33 -23q-53 -32 -108 -50.5t-113 -22.5q-9 -1 -19 -1q-48 0 -94 19q-54 23 -94 74q-65 80 -85 198zM207 455v-20q0 -206 100 -259q20 -10 41.5 -10t46.5 10q86 37 189 148q37 280 86 518q-65 25 -134 25 q-31 0 -63 -5q-77 -20 -137.5 -77.5t-91.5 -137.5q-34 -102 -37 -192z" />
<glyph unicode="e" horiz-adv-x="946" d="M60 572q38 167 143 292q127 149 307 195q51 13 102 13q56 0 112 -16q106 -31 155 -124q28 -50 27 -101q0 -21 -4 -43q-16 -74 -60 -134t-107 -105q-174 -121 -430 -121q-32 0 -65 2q7 -101 49 -168q22 -36 55.5 -63t69.5 -33q21 -4 44 -4q77 0 175 49q17 9 35 9 q17 0 34 -8q35 -18 39 -56q1 -6 1 -11q0 -69 -91 -114q-54 -30 -129 -47q-58 -14 -112 -14q-95 0 -177 45q-128 71 -170 231q-21 83 -21 167q0 79 18 159zM266 625q53 -4 102 -4q71 0 134 9q105 16 174 85q26 30 26 60q0 15 -6 30q-20 44 -78 63q-33 8 -65 8q-29 0 -57 -6 q-59 -14 -97 -47q-83 -68 -118 -157q-2 -7 -7.5 -20.5t-7.5 -20.5z" />
<glyph unicode="f" horiz-adv-x="540" d="M-368 -334q0 54 42 96q26 26 55 26q18 0 38 -11q35 -20 73 -33.5t79 -15.5q4 -1 7 -1q36 0 51 23q41 49 61 118.5t34 162.5q14 80 27 175t20.5 162.5t19 180t17.5 166.5q1 6 12 84q-14 0 -41 -1t-41 -1h-8q-54 0 -60 50q-1 7 -1 13q0 45 35 90q37 47 81 49q47 0 72 2 q34 167 104 275q32 59 82.5 101t110.5 55q24 5 49 5q90 0 197 -71q39 -26 39 -80q0 -11 -2 -24q-9 -63 -51 -94q-19 -14 -39 -14t-40 13q-68 50 -123 52q-30 0 -53 -15q-57 -46 -92 -162q-2 -7 -5 -21.5t-5 -21.5h155q62 -1 69 -55q1 -7 1 -13q0 -45 -35 -88 q-36 -46 -82 -46h-147q-6 -39 -14.5 -112t-12.5 -103q-6 -44 -25 -211t-32 -256q-30 -243 -86 -379q-70 -170 -193 -213q-38 -13 -77 -14h-7q-36 0 -73 9q-40 11 -72 25t-72 35q-42 31 -42 88z" />
<glyph unicode="g" horiz-adv-x="952" d="M-78 -292q-2 7 -2 15q0 27 21 50q27 32 71 41q16 3 31 3q27 0 51 -10q95 -39 174 -39q14 0 27 1q72 0 144 86t85 211q-64 -41 -96 -54q-48 -23 -97 -34q-26 -6 -54 -6q-25 0 -50 4q-55 10 -92 47q-113 109 -113 310q0 67 13 144q24 141 83 267t156 208q75 64 166 87 q57 14 112 14q36 0 70 -5q91 -15 181 -61h11q47 0 78 -25q20 -16 20 -41q0 -16 -9 -36q-24 -48 -41 -158q-15 -90 -33 -213q-18 -119 -27 -175t-29 -151.5t-44 -169.5q-86 -259 -250 -354q-111 -64 -243 -64q-126 0 -271 58q-36 13 -43 50zM203 453q-12 -72 -12 -124 q0 -130 77 -134h5q48 0 126 38q96 53 191 152q5 33 15.5 99.5t15.5 99.5q20 154 38 229q-61 21 -115 21q-98 0 -175 -68q-66 -56 -108 -139t-58 -174z" />
<glyph unicode="h" horiz-adv-x="1034" d="M6 44q-5 20 -5 39q0 23 7 44q81 362 125 586q-14 18 -14 37q0 29 33 61q4 2 6 2q64 312 129 569q9 36 43 54q16 8 31 9q18 0 36 -11q35 -24 45 -68q5 -20 5 -38q0 -23 -7 -44q-12 -52 -37 -157.5t-38 -157.5q159 86 303 94h12q36 0 68 -5q38 -6 77 -20.5t68.5 -43 t42.5 -68.5q8 -25 11.5 -54t4 -50t-4.5 -58.5t-7.5 -50.5t-11.5 -56t-10 -49q-14 -64 -41.5 -181t-48.5 -211t-37 -179q-6 -29 -32 -45t-58.5 -15t-63.5 12t-49.5 36.5t-12.5 58.5q14 73 31 149.5t42.5 183t35.5 148.5q2 7 12 53t13 62.5t9 52t7.5 63t-0.5 54.5q0 22 -4 35 q0 1 -3 4q-2 2 -2 3q-1 1 5 -3l-4 4q-20 3 -37 2q-94 -4 -184 -60t-189 -145l-2 -2q-128 -598 -143 -661q-9 -37 -44 -53q-16 -8 -32 -7q-18 0 -35 10q-35 22 -45 67z" />
<glyph unicode="i" horiz-adv-x="440" d="M2 61q39 179 108.5 522t79.5 392q12 55 80 72q24 7 46 7q35 0 65 -17q35 -20 35 -54q0 -9 -2 -18q-163 -790 -191 -914q-12 -55 -79 -72q-22 -5 -42 -5q-36 0 -67 17q-35 20 -35 53q0 8 2 17zM236 1270q-6 23 -6 44q0 29 12 54q14 36 60 60q40 21 85 21h11q50 -3 77 -40 q47 -57 47 -123q-7 -63 -42 -93.5t-103 -33.5q-40 0 -88 31q-39 26 -53 80z" />
<glyph unicode="j" horiz-adv-x="397" d="M-285 -342v11q0 35 17 60q17 24 46 24q6 0 13 -1q38 -3 63 -3q12 0 21 1q10 0 18.5 3t16.5 10t14 13.5t12.5 18.5t10.5 19t9.5 22t7.5 20.5t7 20.5t6 17q36 113 91 374q28 125 75.5 361t57.5 286q14 69 65 77q7 1 14 1q35 0 62 -32q26 -29 26 -68q0 -14 -3 -29 q-24 -115 -72.5 -354.5t-75.5 -364.5q-2 -10 -16 -75t-19.5 -87t-17.5 -71.5t-24 -86.5t-25 -73q-85 -223 -275 -223q-20 0 -41 2q-39 6 -61.5 43.5t-22.5 83.5zM238 1284q10 29 26 52t39 40t55.5 16t69.5 -22q38 -24 47 -64q3 -15 3 -29q0 -25 -10 -48q-15 -37 -47.5 -67.5 t-70.5 -37.5q-9 -1 -18 -1q-50 0 -81 44q-22 32 -22 68q0 24 9 49z" />
<glyph unicode="k" horiz-adv-x="854" d="M43 106q14 64 28.5 138.5t32 163.5t27.5 139q0 3 6 39q91 485 152 755q10 41 40 73q27 30 62 30h6q38 -2 55 -38q12 -25 12 -50q0 -12 -3 -25q-11 -50 -137 -674q71 32 133.5 89t145 157.5t102.5 122.5q26 27 52 27q22 0 44 -18q41 -33 50 -95q1 -9 1 -18q0 -40 -23 -66 q-9 -9 -125.5 -145.5t-187.5 -192.5q105 -128 207 -397q11 -24 11 -51q0 -15 -4 -30q-10 -43 -40 -71q-24 -19 -51 -19q-9 0 -17 2q-36 8 -49 42q-71 177 -110 248q-67 118 -148 178q-6 -4 -36 -8q-10 -52 -31 -159t-31 -159q-11 -41 -41 -72q-28 -28 -63 -28h-7 q-38 0 -54 36q-11 25 -11 52q0 12 2 24z" />
<glyph unicode="l" horiz-adv-x="579" d="M84 252q2 33 7 70t9.5 64.5t13 71.5t12.5 63.5t15.5 70.5t14.5 65q135 602 157 707q14 53 82 68q22 5 41 5q39 0 71 -19q32 -20 32 -52q0 -8 -2 -16q-27 -129 -81 -365.5t-69 -302.5q-2 -9 -14 -59.5t-19.5 -81.5t-19 -85t-17.5 -92t-10 -80q-3 -28 -3 -48q0 -10 1 -19 q2 -28 10.5 -36t36.5 -5q9 1 19 1q32 1 64 -13q41 -18 52 -55q4 -12 4 -22q0 -24 -19 -41q-27 -25 -69 -34q-59 -14 -108 -14q-87 0 -145 43q-46 33 -58 87q-9 41 -9 91q0 16 1 33z" />
<glyph unicode="m" horiz-adv-x="1531" d="M46 30q-5 19 -5 36q0 21 8 40q18 75 33 153.5t35.5 193.5t27.5 155q-45 19 -59 51q-4 9 -3 19q0 24 23 51q40 34 76 70q6 26 18.5 79t18.5 78q8 38 42 66q24 20 49 19q10 0 20 -3q53 -13 53 -84q2 1 13 7t16 10q133 78 223 78h4q80 -1 138.5 -38.5t88.5 -103.5 q169 129 312 137h10q100 0 170 -61q74 -64 88 -170q3 -30 3 -64q0 -133 -46 -339q-40 -168 -107 -367q-16 -49 -78 -55q-8 -1 -17 -1q-52 1 -92 31q-35 26 -35 59q0 12 5 25q35 100 55 163.5t45.5 155.5t37.5 175t12 160q0 78 -15 114q-4 0 -34 -12q-9 -3 -82 -41 q-93 -59 -203 -155q-5 -94 -23 -192t-54 -238.5t-46 -186.5q-14 -51 -74 -64q-19 -4 -36 -4q-40 0 -74 20q-40 23 -40 59q0 9 3 20q10 45 43 174.5t51.5 221t26.5 179.5q-18 21 -18.5 45t20.5 47q0 37 -2 68q-5 30 -8 39q-1 1 -6 11l-3 7q0 7 -4 11q-15 -4 -28 -9l-23 -11 l-14 -7q-9 -3 -24 -12.5t-21 -12.5q-99 -66 -215 -174q-12 -58 -52 -269.5t-67 -324.5q-8 -37 -42 -65q-24 -20 -49 -20q-10 0 -20 3q-39 11 -50 53z" />
<glyph unicode="n" horiz-adv-x="1032" d="M45 82q73 259 115 514q-2 0 -2 4q-17 23 -17 49q0 9 2 19q9 36 39 65q18 125 23 201q5 39 37 72q32 32 69 32h2q27 -1 42.5 -20t20 -42t3.5 -50q0 -1 -2 -13t-4 -18q127 88 211 123q67 29 135 32q5 0 11 1q62 1 116 -33q59 -36 80 -111q23 -78 24 -164v-9q0 -82 -17 -166 q-18 -89 -39.5 -164t-51.5 -172t-45 -158q-9 -42 -41 -73t-74 -34q-6 -1 -12 -1q-31 0 -52 22q-20 20 -20 49q0 8 2 16q14 53 46.5 162.5t47.5 167.5q1 5 8.5 35.5t9.5 38t8.5 35.5t8 39t6.5 36.5t6 39.5t3.5 37t2.5 40t-1 37t-3 39q-11 97 -77 97q-30 0 -72 -21 q-99 -55 -252 -185q-44 -294 -127 -577q-9 -42 -37 -74q-27 -31 -65 -31h-2q-37 1 -57 39q-12 24 -13 47q0 14 4 27z" />
<glyph unicode="o" horiz-adv-x="974" d="M49 350q-9 51 -9 103q0 123 49 250q69 181 206 268q149 98 264 98q49 0 92 -18q63 -25 111.5 -74.5t74.5 -110.5q25 -60 41 -130q13 -61 14 -119v-19q-2 -67 -11 -131q-11 -68 -35 -135t-62 -130.5t-86 -114t-112 -86t-135 -46.5q-27 -5 -54 -5q-53 0 -103 21 q-74 31 -123 92t-80 135t-42 152zM218 434q0 -8 -1 -16q0 -52 9 -106q10 -62 45 -105t91 -43q34 0 76 16t74 41q116 85 168 209q39 91 38 190q0 36 -5 74q-11 76 -47 122q-28 36 -79 37q-13 0 -28 -3h-13q-52 0 -100 -22q-54 -25 -89 -62.5t-63.5 -85t-42 -82t-20.5 -61.5 q-11 -43 -13 -103z" />
<glyph unicode="p" horiz-adv-x="1040" d="M-78 -313q50 188 96.5 401.5t98 476t82.5 404.5q6 34 41 49q25 11 54 11q9 0 18 -1q39 -5 70 -29t32 -59l4 2q55 35 111.5 57.5t118.5 32.5q20 3 40 3q40 0 80 -13q59 -20 104 -70q57 -64 76 -157q9 -47 9 -95q0 -47 -9 -96q-18 -97 -58 -194t-98 -177.5t-122 -130.5 q-94 -74 -212 -96q-52 -10 -102 -10q-65 0 -129 16q-62 -272 -92 -377q-8 -29 -35.5 -45t-60.5 -14.5t-63 13t-46.5 38.5t-7.5 60zM266 211q34 -36 93 -41q14 -2 28 -2q44 0 89 14q57 18 102 51q65 47 109.5 158t53.5 211q1 20 1 40t-1 42q-3 42 -18 86q-17 48 -49 66 q-21 12 -45 12q-13 0 -27 -4q-39 -10 -74.5 -30t-70.5 -50q-70 -61 -95 -86q-15 -68 -46 -225.5t-50 -241.5z" />
<glyph unicode="q" horiz-adv-x="1062" d="M49 426q48 328 289 496q133 95 279 110q25 3 50 3q120 0 236 -62q41 -2 63 -25q15 -16 15 -40q0 -13 -4 -27q-27 -140 -81.5 -369t-95.5 -428.5t-59 -374.5q-5 -53 -69 -83q-40 -19 -73 -19q-19 0 -36 6q-38 14 -38 52q0 5 1 11q15 171 62 414q-138 -86 -266 -86 q-39 0 -78 8q-57 10 -98.5 41t-63 72t-31.5 94q-10 50 -10 98q0 51 8 109zM254 453q-7 -53 -7 -96q0 -161 99 -164h9q144 0 286 153q16 73 53.5 230.5t55.5 240.5q-72 32 -137 32q-50 0 -95 -18q-107 -43 -179 -149t-85 -229z" />
<glyph unicode="r" horiz-adv-x="768" d="M45 63q46 173 108.5 506.5t71.5 374.5q8 42 39.5 72.5t73.5 34.5q7 1 14 1q30 0 56 -18t25 -46q0 -6 -1 -13q0 -4 -2 -8q119 78 230 78q49 0 96 -15q53 -16 53 -59q0 -8 -2 -18q-10 -49 -59 -85q-35 -24 -68 -24q-14 0 -27 4q-23 8 -45.5 9t-45.5 -8t-39 -16t-39.5 -27.5 t-34 -29.5t-36.5 -35l-32 -32q-8 -42 -30.5 -160.5t-34.5 -178t-32.5 -153.5t-39.5 -170q-13 -50 -72 -72q-26 -10 -50 -10q-28 0 -50 14q-31 18 -31 55q0 13 4 29z" />
<glyph unicode="s" horiz-adv-x="696" d="M-82 89q-1 11 -1 21q0 46 28 80q21 26 51 26q18 0 39 -9q64 -27 139 -32q11 -1 23 -1q63 0 123 24q72 28 104 91q13 31 6 51.5t-35 46.5q-33 29 -114 80.5t-117 89.5q-64 69 -82 157q-7 31 -7 62q0 56 22 108q34 82 116 134q95 59 215 61h8q115 0 209 -51q47 -25 50 -95 v-10q0 -57 -32 -88q-19 -17 -42 -17q-18 0 -39 11q-42 23 -100 30q-19 2 -38 2q-39 0 -78 -9q-59 -14 -94 -49q-21 -18 -26 -36.5t5 -34.5t26.5 -31t41 -30t46.5 -27t45 -25t34 -23q125 -97 146 -193q11 -46 10 -90q0 -68 -24 -131q-42 -104 -144 -166q-110 -62 -225 -62h-2 q-116 0 -234 54q-45 21 -53 81z" />
<glyph unicode="t" horiz-adv-x="651" d="M2 930v8q0 33 30 57q34 27 72 29h125q7 33 21.5 98.5t21.5 98.5q14 68 64 72h6q41 0 74 -41q29 -35 29 -75q0 -12 -3 -24q-3 -18 -28 -129q131 5 157 8q8 1 16 1q31 0 61 -16q42 -22 42 -61q0 -36 -32 -60t-72 -28q-70 -8 -211 -8q-76 -326 -99 -469q-14 -114 -14 -151 q0 -76 37 -86q6 -2 14 -2q35 0 88 38q22 14 42 14q23 0 45 -19q38 -34 39 -82q0 -53 -42 -87q-111 -68 -193 -68q-76 0 -128 58q-52 59 -65 145q-8 53 -8 115q0 38 3 78q17 212 94 516q-13 0 -35.5 -2t-33.5 -2q-43 0 -78.5 17.5t-38.5 56.5z" />
<glyph unicode="u" horiz-adv-x="1009" d="M42 233q1 63 3.5 88t9.5 87q11 82 28 164t48.5 213t38.5 163q10 42 36 72q21 24 51 23q7 0 15 -1q36 -6 54 -45q12 -25 12 -50q0 -14 -4 -27q-11 -48 -33 -141t-38 -167t-27 -141q-23 -121 -23 -195q0 -5 -1 -27.5t-0.5 -34.5t4.5 -28t13 -24q10 -9 27 -10.5t37 4t40 13 t40.5 18t34.5 18.5t26 16q90 54 158 111q4 26 29 164q36 218 84 454q12 48 72 64q22 6 43 6q36 0 67 -16q40 -21 40 -61q0 -10 -3 -21q-57 -274 -86 -455q-5 -36 -19.5 -116.5t-22.5 -142.5t-10 -118q0 -31 -22 -54q-22 -22 -54 -30q-25 -6 -50 -6h-14q-32 2 -55.5 20.5 t-25.5 47.5q-74 -51 -123 -74q-116 -57 -199 -57q-74 0 -122 45q-30 27 -49 71q-18 45 -24 81q-6 32 -6 83v16z" />
<glyph unicode="v" horiz-adv-x="921" d="M84 905q-1 6 -1 11q0 47 53 84q44 30 86 30q10 0 20 -2q46 -9 53 -57q33 -273 102 -623q215 337 361 590q19 40 56 62q31 19 66 19q6 0 13 -1q39 -6 58 -38q10 -16 10 -34q0 -16 -9 -33q-58 -103 -131.5 -225t-123.5 -202t-143 -228t-130 -207q-19 -31 -61 -47 q-24 -9 -48 -9q-17 1 -34 5q-40 12 -48 53q-110 544 -149 852z" />
<glyph unicode="w" horiz-adv-x="1423" d="M84 911v7q0 48 50 79q40 25 81 25q14 0 28 -3q56 -11 60 -63q7 -103 30 -292t29 -246q157 253 318 526q38 62 117 62q33 0 64 -16t32 -46t3 -59.5t5.5 -64t5.5 -57t8.5 -63t8.5 -56.5t10.5 -63t10 -56.5t11.5 -63t11 -58.5q210 389 282 553q21 49 89 58q15 2 29 2 q44 0 73 -24q22 -19 22 -46q0 -16 -8 -35q-76 -173 -245.5 -487t-200.5 -375q-17 -32 -66 -51q-30 -12 -59 -12q-17 0 -35 5q-46 12 -51 58q-12 108 -48 304t-44 249q-54 -90 -162 -272.5t-162 -272.5q-23 -39 -75 -55q-24 -8 -45 -8q-25 0 -49 10q-44 20 -44 74 q-1 157 -39 441.5t-45 391.5z" />
<glyph unicode="x" horiz-adv-x="880" d="M-80 102q4 44 31 74q109 113 360 393q-113 231 -166 351q-10 20 -10 45q1 17 5 35q12 46 46 63q16 8 31 8q18 1 34 -11q30 -22 48 -61q55 -131 137 -292q41 48 309 350q21 20 45 20q10 1 21 -3q36 -12 53 -46q17 -31 17 -66q0 -7 -1 -14q-4 -43 -32 -74 q-294 -329 -318 -358q67 -132 199 -405q11 -19 11 -43q0 -16 -5 -35q-12 -46 -45 -66q-16 -8 -31 -8q-19 1 -35 13q-29 22 -46 61q-62 129 -172 344q-226 -250 -353 -383q-22 -21 -45 -21q-9 -1 -19 3q-33 12 -52 47q-18 29 -18 65q0 7 1 14z" />
<glyph unicode="y" horiz-adv-x="923" d="M-75 -279q-6 15 -6 28q0 22 15 40q21 33 68 33q2 0 40.5 -4.5t63 0.5t37.5 24q26 39 70 132.5t72 138.5q-6 6 -9 18q-46 184 -68 278t-52.5 249t-44.5 282q-4 32 16 57t52 35t65 10.5t58.5 -17.5t29.5 -50q20 -195 106 -574q60 117 164 332t141 289q24 47 87 48h3 q60 0 102 -36q28 -24 28 -52q0 -15 -7 -30q-281 -566 -374 -741q-136 -266 -224 -395q-39 -56 -78 -94t-86 -62q-43 -22 -94 -22h-8q-56 2 -119 30q-33 15 -48 53z" />
<glyph unicode="z" horiz-adv-x="858" d="M-75 145q17 52 69 52h4h4q100 109 280.5 321.5t266.5 308.5h-350q-30 0 -52.5 22.5t-30.5 54.5q-6 24 -6 49v15q2 32 24 55t56 24q52 0 179 -1q85 -1 154 -1q35 1 65 1q92 0 178 3q30 2 53 -18.5t31 -51.5t6 -63t-22.5 -55.5t-53.5 -26.5q-114 -120 -312.5 -353.5 t-242.5 -283.5h367q30 0 53 -22t30.5 -53.5t4.5 -63.5t-24.5 -54t-55.5 -22q-177 -4 -325 -4t-267 4q-50 0 -76 54q-15 32 -14 64q0 23 7 45z" />
<glyph unicode="{" horiz-adv-x="962" d="M4 604q13 51 48 86t79 27q98 -21 148 80q4 8 6 10v2q22 54 37 110.5t31 132.5t24 109q7 34 14.5 64t18.5 67t23 68t28 64.5t34.5 59.5t40.5 50.5t49 40t57 25t66 9t76 -11.5q52 -15 54.5 -79.5t-37 -114t-88.5 -27.5q-38 17 -73 -6.5t-48 -75.5q-46 -178 -84 -350 q-62 -261 -174 -371q14 -18 24 -53q7 -23 11 -50.5t5 -48.5t-1 -55.5t-4 -50t-7 -55t-6 -49.5q-1 -9 -8 -52t-9 -58.5t-6.5 -52.5t-5.5 -59t-0.5 -50.5t3.5 -51.5q8 -41 32 -55.5t58 2.5q61 21 117 -22q48 -35 45 -78q-3 -46 -66 -64q-70 -20 -133.5 -22.5t-128 22 t-107.5 80.5q-28 38 -41 93.5t-11 106.5t5 103q4 48 21 165t20 181q0 44 -4 62q0 8 -0.5 12t-5.5 8t-14 4q-10 0 -31 3t-27 4q-35 10 -48.5 42t-6.5 70z" />
<glyph unicode="|" horiz-adv-x="589" d="M43 -195q80 644 270 1598q13 58 81 79q63 19 114 -7q49 -25 39 -78q-197 -990 -275 -1598q-7 -54 -67 -75.5t-114.5 2.5t-47.5 79z" />
<glyph unicode="}" horiz-adv-x="681" d="M-202 -264q2 54 48.5 96t96.5 29q110 -36 127 45q7 18 12.5 37.5t10.5 43.5t8.5 40.5t7.5 46.5t5.5 42.5t5.5 47t5 43.5q0 3 5 48t6.5 53.5t7 50.5t9 56t11 51t14 54.5t17.5 48t22.5 49t26.5 41t32 39.5q-6 30 -6 31q-3 23 -3.5 50.5t0.5 46.5t6 54.5t7 46.5t10 54t9 47 q3 17 11.5 64t11 64.5t9 65t5.5 65.5t0 65q-1 18 -2.5 27t-6 24t-14.5 21.5t-26 5.5q-44 -10 -88 3t-58 50q-17 39 8 70.5t66 41.5q47 11 93.5 12t91.5 -9t82.5 -38.5t58.5 -72.5q20 -45 25 -104t1 -102t-14 -105q-6 -55 -25 -165.5t-24 -162.5q-5 -55 -2 -72v-2 q48 -2 77 -36t16 -76.5t-73 -63.5q-46 -12 -92 -12q-10 2 -27 -14.5t-18 -30.5q-22 -54 -33 -135q-7 -43 -20.5 -163.5t-26.5 -185.5q-32 -206 -133 -317q-60 -65 -145.5 -86.5t-167.5 2.5q-65 18 -61 80z" />
<glyph unicode="~" horiz-adv-x="1136" d="M3 657q10 56 48 82q114 86 165 113q56 30 110 43q30 8 62.5 8.5t58 -3t61 -14.5t56.5 -19t59 -23q7 -3 34.5 -17t41.5 -20t37.5 -15t43.5 -12t39 -2q19 2 34 9.5t28.5 25.5t19.5 26.5t19 35.5t14 30q19 38 56 53.5t71 -10.5q61 -46 16 -151q-68 -145 -173.5 -209 t-244.5 -13q-26 10 -81.5 38t-103 46t-87.5 19q-31 0 -60 -7t-59.5 -24t-49 -29t-53.5 -38t-48 -35q-60 -43 -95 6q-30 41 -19 106z" />
<glyph unicode="&#xa9;" horiz-adv-x="1585" d="M47.5 480.5q-24.5 171.5 50.5 363.5q57 134 156 248.5t225 183.5q196 88 279 114q172 55 313 37h19q195 -40 315.5 -182t134.5 -344q14 -190 -55.5 -386t-214.5 -339q-175 -175 -401.5 -230.5t-424.5 27.5q-161 68 -266.5 202t-130 305.5zM231 485q26 -107 104 -186 t181 -115t225.5 -30t233.5 59q154 74 262.5 231t122.5 318q21 175 -49 276q-94 137 -277 168q-49 12 -71 10.5t-84 -16.5q-102 -29 -169 -52t-154.5 -71.5t-145.5 -109.5q-107 -110 -158.5 -237.5t-20.5 -244.5zM414 518q-31 115 20 238t160 205q62 44 124 63t124.5 12.5 t113 -21.5t115.5 -44q62 -29 37 -88q-19 -47 -75 -78q-57 -31 -101 -12q-4 2 -23 12t-35.5 18.5t-40 18t-42 14.5t-36.5 4.5t-28 -8.5q-56 -50 -78.5 -110.5t-5.5 -118.5q14 -51 46 -90t75 -52q33 -10 59 -2q9 6 27.5 27t26.5 39q27 40 68.5 64.5t84.5 21.5q39 0 64.5 -29 t3.5 -67q-70 -119 -178.5 -188t-227.5 -56q-99 12 -173.5 73.5t-104.5 153.5z" />
<glyph unicode="&#xab;" horiz-adv-x="995" d="M43 421q-3 17 0 32.5t10 29.5q18 44 48.5 84t77.5 89t67 73q19 24 49.5 69t58.5 79.5t60 58.5q29 27 70 32.5t71 -22.5q22 -35 10 -74t-43 -65q-42 -32 -83 -93.5t-83 -121.5t-88 -92q146 -143 201 -287q19 -47 -22.5 -96t-92 -53t-78.5 45q-30 76 -83.5 142t-133.5 142 q-13 11 -16 28zM399 526q30 46 101.5 120t91.5 99q18 23 47 65t55 75t54 57q43 39 117 20q61 -15 82 -55q21 -38 -19 -73q-33 -31 -82 -101.5t-74 -97.5q-21 -25 -69.5 -74.5t-71.5 -77.5q83 -116 149 -260q24 -57 -18.5 -90.5t-104 -24.5t-84.5 56q-71 167 -157 276 q-41 47 -17 86z" />
<glyph unicode="&#xad;" d="M43 643q-3 40 33.5 67t77.5 27h481q44 0 82 -21t39 -61q3 -39 -33.5 -65.5t-77.5 -26.5h-481q-45 0 -82.5 20t-38.5 60z" />
<glyph unicode="&#xae;" horiz-adv-x="1234" d="M44 799.5q5 94.5 27.5 185t67.5 174t106 148.5t146.5 108.5t186.5 54.5h10q110 27 203.5 2t168 -91t126.5 -156t79.5 -192.5t26.5 -201.5q-3 -163 -83.5 -313t-227.5 -225q-119 -62 -247 -84.5t-250.5 5.5t-201.5 110q-49 54 -82 131t-47 163.5t-9 181zM227 860 q-34 -140 19 -272q26 -57 74.5 -101t113.5 -55q100 -16 207.5 4t203.5 82.5t138 157.5q47 103 27 221q-24 136 -90 221q-43 60 -98 95.5t-129.5 42t-155.5 -38.5q18 -3 24 -19q57 5 111.5 -2.5t103 -28t76 -62.5t22.5 -101q-9 -144 -145 -238q27 -46 41 -96 q13 -38 -2.5 -86.5t-52.5 -73.5q-39 -26 -70.5 -12.5t-42.5 51.5q-9 27 -12 33t-10.5 19.5t-10.5 19.5q-7 3 -14 17q-1 3 -0.5 3t2.5 -2q-10 8 -27 25q-4 0 -4 2q-1 0 -2.5 -1t-3.5 -1q-2 -12 -6 -33.5t-6 -32.5q-7 -44 -34.5 -82t-70.5 -39q-40 -3 -60 33.5t-13 77.5 q6 33 20.5 100.5t22.5 107.5t17 97.5t13 105.5q-19 15 -16.5 45t23.5 62q12 67 43 92q-1 2 -4.5 3.5t-4.5 2.5q-88 -48 -144.5 -144t-72.5 -200zM555 862q4 4 10 4q21 12 39 15q37 15 53 28l-1 -1q2 2 3 5q2 10 0 15q-15 44 -84 63q-3 -24 -10 -66.5t-10 -62.5z" />
<glyph unicode="&#xbb;" horiz-adv-x="950" d="M2 166.5q-7 24.5 12 46.5q39 41 153.5 150t170.5 174q-33 60 -90 175.5t-78 155.5q-20 34 5 65t63 38q42 6 81.5 -13.5t61.5 -56.5q20 -39 53 -110t63 -129t62 -105q31 -60 6 -88q-49 -57 -107 -116t-133 -130t-112 -108q-29 -32 -70 -38t-80 15q-19 10 -36.5 30 t-24.5 44.5zM408 149q-5 53 28 89q23 26 125.5 134.5t153.5 170.5q-13 18 -31 53q-22 35 -65 105.5t-64 105.5q-23 37 -20.5 79.5t30.5 76.5q23 31 60 37.5t61 -27.5q15 -24 156 -256q49 -83 59 -118q20 -64 -10 -116q-41 -64 -96.5 -128.5t-133 -145t-110.5 -117.5 q-52 -56 -100 -25q-38 26 -43 82z" />
<glyph unicode="&#x401;" horiz-adv-x="1089" d="M84 90q6 51 61 78q15 89 53 340t71.5 423.5t80.5 332.5h-4q-37 13 -41 53.5t19 68.5q38 52 96 58q45 49 94 31q33 -15 45 -54q93 -16 272.5 -13t272.5 -7q66 -8 67 -60q1 -48 -46 -92q-46 -44 -97 -39q-92 14 -265 14t-245 7q-48 -162 -92 -402q21 1 190 7t256 6 q66 1 101 -50q31 -44 10 -84q-23 -39 -88 -40q-94 0 -267.5 -8t-230.5 -9q-14 -86 -36.5 -243t-30.5 -207q115 14 176.5 18.5t158.5 -4t175 -39.5q36 -13 46 -48.5t-14 -66.5q-28 -35 -72.5 -47.5t-84.5 2.5q-59 23 -132 28t-127 -1t-140.5 -18.5t-129.5 -16.5 q-39 -3 -72.5 20t-29.5 62zM518 1577q0 61 27 111l28 49l5 4q20 39 54.5 61.5t69.5 5.5q35 -19 42 -64.5t-11 -76.5q-4 -7 -13 -22.5t-13 -22.5h-5q0 -1 -1 -5.5t-1 -6.5q-5 -42 -30.5 -77t-63.5 -44q-39 -9 -65 20t-23 68zM821 1522q3 15 10.5 44.5t10.5 43.5q0 4 4 6 q-36 36 -19 84q15 39 55.5 63.5t84.5 22.5q45 -4 70.5 -36.5t23.5 -80.5q-4 -36 -25 -119q-9 -42 -41.5 -72t-74.5 -36q-38 -5 -72.5 18.5t-26.5 61.5z" />
<glyph unicode="&#x402;" horiz-adv-x="1263" d="M88 1212.5q-17 55.5 10.5 110.5t77.5 55q130 0 388.5 9.5t387.5 9.5q59 0 77 -54.5t-9.5 -108.5t-79.5 -54l-240 -6q-32 -181 -73 -340q72 19 200 24q45 0 84 -3.5t82 -12t77.5 -25t65 -40.5t50.5 -60.5t28 -83.5q20 -112 -20 -230t-119 -212.5t-181 -167.5t-206 -107 q-38 -13 -64 16t-26 68q0 42 26 78.5t64 46.5q116 42 232 158q37 41 59.5 69.5t44 75.5t18.5 88q-2 41 -23.5 68.5t-59 39t-69 15.5t-73.5 4q-45 -4 -131 -16q-23 -2 -65 -13q-8 -2 -18 -4q-5 -2 -5.5 -1.5t4.5 4.5l2 2l2.5 2.5l3.5 3.5q0 2 2 3.5t2 2.5q-18 -18 -43 -25 q-59 -284 -61 -459q-3 -53 -65 -83q-61 -29 -112 -11q-46 17 -44 68q6 157 40 334.5t84 383.5t72 332q-182 -10 -323 -10q-57 0 -74 55.5z" />
<glyph unicode="&#x403;" horiz-adv-x="1046" d="M86 170q109 409 252 1106q-57 26 -49 76q7 41 44.5 62.5t82.5 21.5h655q40 0 71 -23.5t25 -62.5q-7 -39 -44.5 -61.5t-78.5 -22.5h-522v-9q-12 -54 -61 -286t-70.5 -329t-61.5 -270t-77 -313q-9 -38 -44 -50.5t-67 9.5q-35 22 -49.5 65.5t-5.5 86.5zM611.5 1547 q-15.5 35 9.5 67q10 10 92 83.5t118 117.5q27 31 72.5 37.5t81.5 -11.5q36 -17 50.5 -50t-9.5 -67q-36 -38 -108.5 -102t-102.5 -94q-32 -32 -72.5 -40t-80.5 9q-35 15 -50.5 50z" />
<glyph unicode="&#x404;" horiz-adv-x="1048" d="M82 554q0 86 12 173q32 290 176 455q106 118 245.5 186.5t289.5 79.5t309 -27q36 -10 49 -50t4 -80.5t-40 -68t-72 -16.5q-188 49 -377 -4.5t-309 -200.5q-71 -91 -97 -204q328 -19 512 8q39 8 69 -14.5t26 -63.5q-4 -40 -38.5 -69.5t-74.5 -34.5q-183 -27 -514 -15v-10 q-6 -107 8.5 -185.5t73.5 -140.5q49 -46 116 -66.5t144.5 -16t136.5 15.5t135 31q56 15 84.5 -34.5t14 -110.5t-63.5 -75q-72 -19 -134.5 -31t-142.5 -17.5t-146 3t-133 38.5t-116 81q-53 51 -87 127.5t-47 163.5t-13 173z" />
<glyph unicode="&#x405;" horiz-adv-x="929" d="M-81 72.5q-2 57.5 40 105t92 35.5q41 -9 86 -17t113.5 -16t129.5 -5.5t119 14t97.5 43.5t50.5 81q12 53 -25 120.5t-94 127.5q-39 41 -106 91.5t-124 99t-93 102.5q-52 78 -62.5 155.5t15 142t77 122t121.5 99t151.5 68.5t163.5 35t161.5 -6t140.5 -51q20 -12 29.5 -32 t7.5 -42t-11 -45t-25 -41t-35 -30.5t-40.5 -13.5t-42.5 10q-67 40 -164.5 48.5t-192 -22t-143.5 -94.5q-15 -18 -19.5 -51.5t11.5 -73.5q36 -55 92 -104.5t123 -100.5t105 -90q61 -63 101.5 -136t57 -151.5t-2.5 -160t-76 -152.5q-51 -64 -125.5 -104t-151.5 -55.5 t-168 -15.5t-168 10.5t-158 29.5q-56 13 -58 70.5z" />
<glyph unicode="&#x406;" horiz-adv-x="571" d="M88 92q129 532 244 1223q6 44 33 78t71 45q37 8 67.5 -16t24.5 -62q-132 -757 -252 -1276q-14 -57 -73 -83q-55 -25 -93 1q-37 26 -22 90z" />
<glyph unicode="&#x407;" horiz-adv-x="581" d="M84 86q13 103 35 219.5t39 197.5t54 222.5t51.5 195.5t62 221t57.5 201q15 50 76 60t110.5 -21.5t34.5 -81.5q-14 -51 -57.5 -203t-61.5 -217.5t-53 -198.5t-53.5 -219.5t-39.5 -201t-34 -217.5q-7 -53 -64.5 -64.5t-110 21t-46.5 86.5zM272 1679q0 38 29.5 63t65.5 13 q11 -2 32 -14q31 -10 39 -17q36 -20 49 -67q22 -45 7 -80l-4 -8t-3 -8q-4 -28 -14 -43q-25 -31 -55 -43q-46 -18 -88 28q-36 36 -56 105q-2 25 -2 71zM543 1661q0 42 30 63q17 17 43 17q4 0 7 6q30 20 60 10t54 -39q2 -2 9 -8t12 -12t8 -12q20 -49 18 -91q0 -24 -16 -53 q-28 -43 -66 -43q-2 0 -38 6q-9 3 -24 10t-19 9q-26 10 -41 28q-1 1 -8 10t-11 15q-21 37 -18 84z" />
<glyph unicode="&#x408;" horiz-adv-x="669" d="M-78 89q9 56 58 91t94 0q16 -11 31 -12.5t29 8t26 21t24 34t20 37t17.5 40.5t12.5 35t10 28q17 49 51 178q34 145 82 417t72 386q12 42 41.5 73.5t68.5 30.5q38 -1 56.5 -37.5t11.5 -75.5q-2 -9 -49 -287q-119 -705 -277 -960q-155 -251 -352 -102q-36 39 -27 95z" />
<glyph unicode="&#x409;" horiz-adv-x="1957" d="M-117 39q-13 41 12 71t66 33q119 3 180 70q73 73 138 233q64 168 152.5 494.5t105.5 382.5q3 24 18 33q-7 68 78 82q315 50 596 0q52 -10 92 -41.5t27 -79.5q0 -1 -125 -436q160 10 288 -23q68 -14 130 -44.5t114 -74.5t84.5 -106.5t34.5 -134.5q2 -78 -23 -145.5 t-70.5 -118t-106.5 -91.5t-133.5 -68t-149 -46t-154.5 -27t-150 -8t-135 8q-44 6 -84.5 33t-36.5 67q24 248 109 607q-19 25 -13 54.5t42 47.5q52 219 127 465q-181 13 -336 -10q0 -3 -2 -9.5t-2 -9.5q-61 -205 -154 -557q-83 -280 -133 -389q-147 -323 -444 -342 q-45 -3 -86.5 18.5t-55.5 61.5zM1071 176q159 6 301 53q278 94 273 275q-3 164 -195 190q-153 20 -281 -16q-59 -237 -98 -502z" />
<glyph unicode="&#x40a;" horiz-adv-x="1982" d="M86 51q23 93 63.5 257t74.5 300t65 256q10 42 31.5 125t31.5 125q22 89 27 125q0 55 6 45q-13 33 -2.5 62t40.5 46.5t63 24.5t65 -4.5t45 -40.5q14 -34 15.5 -76.5t-4 -72t-17.5 -76.5q-10 -43 -30 -118t-28 -107q-12 -46 -18 -66q102 1 565 21q12 54 28 161t35.5 191 t51.5 155q19 38 61.5 61.5t85.5 16.5q39 -5 57 -38.5t1 -69.5q-30 -63 -47.5 -139t-32 -178.5t-23.5 -147.5q65 2 130.5 4t132.5 -9.5t124 -32t105.5 -64.5t77.5 -107q43 -96 31 -195t-61 -185.5t-126 -154.5q-51 -45 -114 -77.5t-136 -52t-134 -31t-146 -25.5t-136 -25 q-35 -8 -66.5 9t-35.5 51q-27 18 -24 67q44 295 118 619q-285 -21 -567 -21q-90 -343 -154 -610q-13 -54 -82 -75q-66 -21 -114 3q-46 23 -33 74zM1149 143q4 1 64 8.5t73 9.5t63.5 10.5t72 16.5t59 21t64 29.5t50.5 37.5q72 62 85 166t-52 181q-29 32 -79 48.5t-85.5 20 t-95.5 4.5q-78 0 -115 -2q-67 -299 -104 -551z" />
<glyph unicode="&#x40b;" horiz-adv-x="1331" d="M86 1346q13 38 50.5 59.5t82.5 24.5q158 0 473.5 9t474.5 9q38 0 63 -28t15 -64q-11 -39 -50 -61.5t-83 -22.5q-223 0 -403 -8q-13 -51 -57 -213t-66 -250q70 27 106 40t101.5 31.5t110 22t100 -3.5t102.5 -29q57 -29 91 -89t39.5 -124.5t-1.5 -130.5q-9 -67 -27.5 -136 t-48.5 -159.5t-41 -130.5q-13 -51 -74 -77q-59 -25 -99 -1q-39 22 -23 82q6 23 48 155t56 206q5 34 6.5 66.5t-3.5 71t-24.5 66t-52.5 35.5q-81 19 -251 -39l-4.5 -1.5t-4 -1t-4.5 -1.5q-7 -2 -151 -55q-73 -290 -103 -526q-5 -39 -39 -60.5t-67 -3.5q-37 20 -51 61.5 t-7 84.5q23 183 76 419q-29 22 -29 56q6 63 66 94q26 107 79 311t58 223q-175 -6 -354 -6q-38 0 -64 29t-16 66z" />
<glyph unicode="&#x40c;" horiz-adv-x="1089" d="M86 80q47 167 93 416.5t96 476t120 409.5q21 58 72.5 72t84.5 -22t9 -99q-76 -197 -129 -465q86 40 163.5 97t156 143.5t123 140.5t128.5 165q5 7 8 10.5t7 9t8 10.5q15 22 40 24t46.5 -11t34.5 -32q24 -34 24 -77.5t-24 -77.5q-71 -94 -118 -152.5t-114.5 -135.5 t-136 -137.5t-141.5 -109.5q196 -322 317 -618q22 -51 -23 -107q-40 -50 -88 -54q-47 -3 -67 46q-117 289 -325 633q-11 -3 -33 -11.5t-35 -11.5q-56 -320 -115 -528q-10 -42 -42 -74.5t-72 -32.5q-40 -1 -59.5 31.5t-8.5 71.5zM780 1596q-7 54 25 85q5 5 31.5 32.5t38 37.5 t33.5 29t42 29.5t41 17.5q38 10 68 -22t37 -70q10 -40 -4.5 -78t-51.5 -49q-2 0 -2 -2q-3 -2 -9 -5.5t-9 -5.5q-2 -2 -9 -6.5t-10 -9.5q-12 -8 -12 -12q-30 -23 -61 -58q-47 -47 -97 -7q-43 34 -51 94z" />
<glyph unicode="&#x40e;" horiz-adv-x="1056" d="M88 183q17 55 57 72q42 18 80 -28l4 -4q9 0 9 -2q5 0 11 1l1 -1q2 1 5.5 1.5t6.5 1.5t6 3q7 2 10.5 3.5t7.5 4t6.5 4.5t9 7.5t13.5 11.5q36 25 56 49q78 90 80 92q-7 3 -7 15q-34 88 -99 249t-115.5 293.5t-90.5 253.5q-18 9 -24 43q-6 42 -6 52q-4 55 51.5 89t105.5 21 q24 -4 41 -27t24.5 -47t16 -59t12.5 -47q65 -176 93 -244q51 -127 149 -373q38 67 39 70q140 237 236 447q35 76 73 174q3 6 7.5 18.5t7.5 18.5v2q6 24 6 29v-19q0 39 23 74.5t61 35.5q39 0 62 -37t20 -77q-1 -33 -8 -68.5t-23 -75.5t-27.5 -65.5t-34 -72t-30.5 -62.5 q-115 -253 -271 -512q-136 -225 -237 -337q-247 -277 -400 -91q-39 45 -18 113zM299 1616q4 33 25 56.5t53 23.5h489q33 0 55.5 -23.5t28 -56.5t1 -66t-25.5 -56.5t-53 -23.5h-489q-32 0 -54 23.5t-28 56.5t-2 66z" />
<glyph unicode="&#x40f;" horiz-adv-x="1351" d="M86 129q15 43 55 53l4 6q179 880 236 1182q8 39 40 68.5t68 21.5q28 -6 43.5 -28t17 -48.5t-0.5 -52.5q-44 -227 -135 -664t-101 -485q309 -30 578 -10q44 169 78 361t69.5 429.5t57.5 364.5q9 50 71 77q62 26 108 6q44 -19 34 -73q-21 -118 -59.5 -376t-74.5 -452.5 t-85 -369.5q0 -1 -4 -8.5t-5 -13.5q6 -18 6 -21q0 -40 -34.5 -61t-79.5 -27q-137 -15 -330 -12q-11 -48 -25.5 -156t-29.5 -164q-13 -42 -42 -71t-69 -19q-36 8 -50.5 50t-4.5 81q13 41 21 86t16.5 111.5t11.5 87.5q-139 5 -305 25q-36 5 -63 36t-17 66z" />
<glyph unicode="&#x410;" horiz-adv-x="1124" d="M-59.5 33.5q-1.5 43.5 22.5 79.5q72 105 138 241.5t133.5 289.5t121.5 251q20 38 80 147.5t90 171.5q51 105 72 170v76q2 46 22 82.5t60 36.5h18q39 -6 62 -43.5t26 -83.5q3 -61 -14 -133q5 -106 23 -231.5t35.5 -213t48.5 -227.5q32 -5 36 -6q53 -8 66.5 -43t-6 -72.5 t-55.5 -58.5q61 -298 79 -485q3 -39 -20.5 -77t-63.5 -38q-40 -3 -61 30.5t-27 77.5q-24 220 -82 486q-153 11 -333 -19q-28 -45 -86 -63q-134 -292 -236 -442q-16 -22 -40 -24.5t-46 9.5t-37 31q-25 37 -26.5 80.5zM440 635q150 20 265 20q-50 218 -70 344 q-83 -165 -195 -364z" />
<glyph unicode="&#x411;" horiz-adv-x="1150" d="M2 80.5q-1 24.5 0 40t7.5 48l8 40t11.5 45.5q39 143 110 340q10 27 48 127t53 145.5t40 127t37 150t15 136.5q-23 6 -38.5 25.5t-14.5 44.5q0 51 61 84q31 52 95.5 65.5t92.5 -33.5q344 43 553 43q45 0 77.5 -17.5t31.5 -57.5q-1 -41 -39.5 -71t-79.5 -30 q-213 0 -530 -41q-7 -131 -68 -336q264 19 414 -79q80 -54 122 -138.5t41 -179t-42 -184.5q-37 -82 -109.5 -151t-151.5 -113t-172 -76q-270 -95 -509 -84q-68 6 -58 84q-5 21 -6 45.5zM213 168q160 9 319 61q55 20 89.5 34.5t84.5 40t85 58.5t55 72q37 76 3 152.5 t-114 109.5q-137 61 -338 39q-6 -14 -15.5 -40t-14.5 -36q-9 -27 -38.5 -108t-47 -135.5t-31.5 -108.5q-29 -99 -33 -125q0 -8 -4 -14z" />
<glyph unicode="&#x412;" horiz-adv-x="1210" d="M8.5 1.5q-16.5 45.5 1.5 92.5q-10 17 0 41q27 95 62 199t81.5 236.5t69.5 199.5q3 16 13 37q112 350 155 602q2 41 22.5 70.5t57.5 33.5q85 12 138.5 16t132.5 3t144.5 -22t117.5 -62q107 -83 148 -217t-15 -260q-59 -115 -209 -195q2 0 6 -2q112 -93 139 -238t-59 -272 q-133 -180 -449 -256q-272 -66 -489 -53q-51 1 -67.5 46.5zM262 178q105 8 225 31q91 21 133.5 31.5t114.5 41t113 68.5q28 22 45 51q7 20 6 23q0 95 -86 158q-91 72 -231 82q-57 -13 -164 -29q-126 -360 -156 -457zM498 877h2q89 19 162 38q73 21 113.5 34.5t102.5 46.5 t95 73q9 17 16 27q0 2 6 10q1 2 1 -1q-1 -1 -1 -3q5 20 5 22t-5 17q-33 96 -108 129q-111 45 -283 30q-33 -177 -106 -423z" />
<glyph unicode="&#x413;" horiz-adv-x="1067" d="M84 76q163 852 246 1224q-14 59 32 89q37 42 103 50t88 -30q38 2 106 10.5t89 10.5q226 19 366 -15q38 -6 62 -41t6 -71t-64 -46.5t-82 0.5q-57 13 -126 13t-124 -7t-130.5 -16.5t-125.5 -11.5q-36 -161 -75 -354.5t-87 -443t-69 -355.5q-10 -52 -72 -79q-61 -27 -107 -6 t-36 79z" />
<glyph unicode="&#x414;" horiz-adv-x="1304" d="M-162 -309q1 71 28.5 197t31.5 180q-13 28 6 67q15 30 44 48t62 20q62 17 99 -29q6 0 18 -2t18 -2q1 2 5.5 5.5t5.5 6.5q4 2 6 6l4 2q45 61 76 127q72 146 145 371q66 217 102 373q3 14 8.5 39t9.5 46.5t7 41.5q1 2 2.5 17t3.5 18q0 -3 4 -11q-4 12 -4 19 q-18 22 -21.5 57t6 67.5t34 56.5t57.5 24h504q39 0 59 -42.5t15 -82.5q-22 -146 -73.5 -350.5t-95 -396.5t-55.5 -353q116 -3 228 -29q42 -11 68 -37.5t14 -66.5q-10 -37 -33 -102t-38 -120t-18 -106q-2 -54 -59.5 -79t-113.5 -5.5t-54 72.5q1 37 8 75.5t13.5 61t21.5 68.5 t21 65l-918 -6q-2 -9 -13.5 -61t-15 -72t-8.5 -59.5t-6 -71.5q0 -56 -61 -94q-57 -36 -104 -22q-46 13 -44 69zM403 176q65 4 190 16.5t185 16.5q9 151 42.5 316.5t86.5 370t76 312.5h-238q0 -24 -5 -52.5t-12.5 -61t-10.5 -47.5q-60 -247 -121 -431q-91 -272 -176 -419z " />
<glyph unicode="&#x415;" horiz-adv-x="1118" d="M86 82q13 48 134 578t149 600q-11 52 26 106t90 53q69 -4 165.5 5t169.5 18t163.5 4.5t165.5 -31.5q52 -25 51 -78t-47.5 -99.5t-95.5 -29.5q-57 21 -126 26.5t-120 1t-133.5 -14.5t-124.5 -13q-54 -168 -98 -368q45 3 125.5 10.5t125 11.5t125 7t125.5 -3 q45 -3 82.5 -28.5t40.5 -65.5t-30 -63t-74 -21q-122 4 -186 0.5t-186.5 -13.5t-186.5 -13q-57 -309 -109 -496q66 3 230 22t254 19q76 1 94 -50q15 -43 -20 -84q-35 -39 -91 -40q-94 -2 -276.5 -24.5t-272.5 -24.5q-5 0 -47 6h-14q-39 -2 -63.5 27t-14.5 65z" />
<glyph unicode="&#x416;" horiz-adv-x="1462" d="M-76 96q20 55 51 108t77.5 107t79 88t89.5 90q171 163 287 232q-105 121 -181 273.5t-108 305.5q-13 55 43 109q49 47 99 47q46 -1 55 -49q30 -137 94.5 -274t153.5 -244q45 255 112 442q17 51 83 66q63 15 106 -15q42 -30 22 -86q-60 -174 -108 -438q93 67 192 166 q94 98 160.5 182.5t109.5 175.5q31 66 84 43q43 -19 66 -76t2 -102q-109 -215 -315 -418q-91 -84 -154 -135q48 -33 84 -84q47 -65 86 -148t80.5 -188.5t66.5 -158.5q31 -63 -4 -116q-28 -43 -72 -39q-46 4 -73 63q-13 28 -76 185t-106 228q-60 90 -185 103 q-42 -282 -90 -457q-12 -43 -44.5 -68t-76.5 -28q-40 0 -76.5 22.5t-27.5 61.5q37 137 100 508q-24 -11 -47.5 -25t-51 -35.5t-42 -32.5t-47.5 -41t-38.5 -35.5t-41.5 -39.5q-67 -67 -149 -170q-7 -7 -16.5 -19t-18.5 -24t-11 -15t-10 -20l-13 -23q0 1 1 4 q-14 -42 -48.5 -71t-76.5 -29q-38 -3 -64 26.5t-12 67.5z" />
<glyph unicode="&#x417;" horiz-adv-x="991" d="M-81 132q5 65 45 96q38 30 85 -1q74 -51 185 -52.5t212 43.5t150 120q44 63 36.5 117t-43.5 91.5t-95 61.5q-27 11 -108.5 19.5t-148.5 25t-85 49.5q-19 36 4 71.5t61 43.5q34 25 133.5 48.5t136.5 47.5q153 66 205 142q37 57 21 124.5t-74 102.5q-26 15 -56.5 22 t-53 8.5t-62 -4t-55 -9t-61.5 -15.5t-54 -14q-113 -26 -147 41q-19 35 3 70.5t60 45.5q10 3 51.5 13.5t56.5 14t54.5 12t58 11t55 7.5t58.5 4t54.5 -3t57 -8.5t52 -16.5t51.5 -25q97 -61 154 -162t20 -199q-62 -174 -297 -293q28 -24 43 -39q96 -98 117.5 -240t-43.5 -267 q-52 -97 -148 -167t-206.5 -100t-229.5 -16t-213 76q-46 32 -40 103z" />
<glyph unicode="&#x418;" horiz-adv-x="1402" d="M88 168q33 111 61 226t52.5 252t38.5 222.5t38.5 254.5t34.5 231q9 54 76 84q64 27 113 9q45 -18 37 -67q-10 -63 -39.5 -262t-52 -332t-50.5 -262q415 521 748 867q41 38 104 -17q57 5 91.5 -20.5t11.5 -77.5q-22 -52 -39.5 -108t-31.5 -123t-22.5 -111.5t-22 -127 t-19.5 -116.5q-53 -324 -86 -457q-25 -98 -54 -182q-17 -51 -84 -67q-64 -15 -106 14q-41 29 -21 84q24 71 45.5 160.5t32 147.5t30.5 174t27 157q5 36 12 76.5t15.5 91t13.5 78.5q-79 -87 -155 -176.5t-170.5 -206.5t-141 -174.5t-166.5 -210.5t-145 -185 q-45 -51 -93.5 -20.5t-61.5 96.5q-39 22 -21 78z" />
<glyph unicode="&#x419;" horiz-adv-x="1400" d="M86 90q-10 24 8 53q19 133 57.5 302.5t73.5 302.5t67.5 299.5t43.5 306.5q3 40 31 76.5t67 37.5q41 3 61.5 -31t18.5 -75q-12 -143 -42 -293t-82 -355.5t-71 -289.5q47 57 144 172t145 174q42 49 142.5 171.5t178 210.5t154.5 163q35 31 76 39q26 38 77 55t90 -0.5 t32 -69.5q-18 -120 -39.5 -242t-50.5 -265t-47.5 -231t-56.5 -263t-52 -238q-9 -43 -43 -73t-78 -33q-36 -5 -69 19.5t-25 62.5q117 509 199 952q-51 -59 -147 -175t-144 -171q-52 -62 -160 -191t-190.5 -228.5t-155.5 -192.5q-22 -32 -59 -35q-30 -46 -74 -51 q-38 -1 -60 32.5t-20 73.5zM610 1659q-8 42 9 85t55 62q36 17 67 -4t37 -61q9 -47 56.5 -55.5t106 12t109.5 47t74 47.5q58 47 98 1q34 -38 27 -102q-6 -54 -39 -83q-51 -43 -120.5 -78.5t-147 -52.5t-146 -10.5t-120 55t-66.5 137.5z" />
<glyph unicode="&#x41a;" horiz-adv-x="1138" d="M89 45q-13 41 1 76q111 334 170 630t51 584q0 45 21.5 84.5t60.5 55.5q36 14 71 -4.5t36 -57.5q6 -280 -37 -547q107 49 231 195q154 173 185 307q13 52 79 80q63 26 107 6q43 -20 29 -76q-52 -213 -258 -430q-97 -104 -183 -168q99 -80 193 -258q153 -292 207 -499 q10 -38 -27.5 -62t-73.5 -20q-45 0 -80 24t-45 64v4q0 1 -0.5 1.5t-1 2t-0.5 4.5q-9 19 -12 35q-30 77 -35 92q-62 148 -100 227q-9 16 -33 63.5t-42.5 79t-39.5 58.5q-13 21 -31 39q0 5 -6 8q-42 0 -88 27q0 4 -2 4h-6h-4q-50 -232 -162 -586q-15 -42 -49.5 -71t-73.5 -21 t-52 49z" />
<glyph unicode="&#x41b;" horiz-adv-x="1359" d="M-79.5 97.5q12.5 52.5 52.5 88.5q28 22 61.5 21.5t53.5 -23.5q73 10 148 107q102 128 190 336q83 196 123 381q23 85 26 145q0 3 1.5 26.5t3.5 50t4.5 54.5t7 46t10.5 18q15 64 60.5 96.5t89.5 -6.5q18 -19 42 -27.5t54.5 -6.5t52 5.5t57.5 13t48 11.5q61 15 103 22.5 t99 8t105 -14.5q33 -12 42 -45t1 -64.5t-23 -56.5q-74 -136 -132 -311t-89.5 -320t-76 -337t-85.5 -322q-11 -38 -50 -63t-75 -11q-26 12 -36 37.5t-8 50.5t10 51q48 150 100.5 380t107.5 435.5t127 370.5q-42 -5 -115.5 -26t-95.5 -25q-96 -15 -153 -8q-10 -86 -51 -258 q-77 -289 -195 -516q-68 -132 -141.5 -231t-169.5 -163q-86 -60 -187 -57q-59 2 -84.5 43t-13 93.5z" />
<glyph unicode="&#x41c;" horiz-adv-x="1591" d="M84 88q17 135 57.5 377t65.5 442.5t26 378.5q0 42 27 81t68 52q57 14 84 -24q46 -3 63 -49q42 -110 149 -339.5t152 -353.5q85 99 200 255t223.5 295t213.5 243q24 24 52.5 26.5t48.5 -12t30 -42.5t2 -58q-34 -136 -100 -422.5t-123 -506.5t-123 -417q-11 -38 -48 -62.5 t-75 -10.5q-36 17 -41.5 62t8.5 77q22 65 42 131.5t40.5 143t34.5 130t35.5 144.5t31 131t33.5 145t31 135q-55 -70 -142 -188.5t-164 -218.5t-150 -180q-2 -29 -22 -55t-48.5 -41t-58.5 -20t-54 7t-32 41q-22 92 -63.5 202t-69 169.5t-89.5 191.5q-17 -147 -63.5 -431 t-63.5 -419q-9 -60 -66 -91q-53 -28 -92 -5q-39 22 -30 86z" />
<glyph unicode="&#x41d;" horiz-adv-x="1318" d="M84 119q7 61 16.5 123.5t24 134.5t24.5 118t30 134.5t28 122.5q46 182 72 327q16 95 20 154q6 54 6 55l2 38v-1q-2 44 16 83.5t58 49.5q37 10 66 -20t32 -70q1 -121 -19 -245.5t-59 -288.5q139 -10 212 -8.5t212.5 8.5t210.5 8q61 289 66 499q0 42 29 80t67 39 q41 3 60.5 -30t19.5 -76q-2 -149 -31.5 -323t-65.5 -311t-79 -317.5t-64 -314.5q-7 -45 -33 -80.5t-67 -38.5q-39 -1 -61 34t-15 73q26 173 119 538q-56 -2 -153.5 -7t-163.5 -8.5t-153 -1.5t-159 11q-82 -352 -98 -508q-4 -40 -24 -66t-46 -30t-50 5t-39 39t-11 71z" />
<glyph unicode="&#x41e;" horiz-adv-x="1337" d="M86 506q-19 324 88 600q23 64 53 118t71.5 104t98.5 80t123 34q53 4 88 -31q133 76 266 82q134 5 237.5 -63t145.5 -195q58 -197 26 -405.5t-139.5 -401t-260.5 -315.5q-65 -51 -137.5 -89t-154.5 -61.5t-164.5 -12t-147.5 63.5q-177 138 -193 492zM322 801 q-45 -352 51 -553q23 -48 51 -75.5t53.5 -37t62.5 -2.5t64 18t72 33q134 67 232 215t138 318.5t19 322.5q-38 268 -191 275q-77 7 -155 -43t-144 -125q-28 -33 -70 -45.5t-85 4.5q-17 6 -19 8q-61 -149 -79 -313z" />
<glyph unicode="&#x41f;" horiz-adv-x="1404" d="M84 84q62 692 248 1235v2q13 38 42 66t64 28l4 -2q4 2 21 2q31 0 43 -12q27 -2 78 -2q123 0 243 6q16 1 85 3.5t98.5 4t84 5t96 9t79.5 13.5q55 12 79 -29.5t10 -96t-52 -77.5q5 -138 -22 -301t-64 -292.5t-77.5 -297t-56.5 -293.5q-4 -41 -34.5 -74t-71.5 -44 q-38 -7 -73.5 12.5t-28.5 58.5q8 61 18 121.5t27 136t25.5 113.5t32.5 134.5t30 119.5q33 141 45 197t26.5 168t10.5 202q-55 -4 -118.5 -7t-138.5 -6t-116 -5q-180 -5 -232 -2q-144 -488 -194 -1045q-4 -43 -34.5 -76.5t-72.5 -44.5q-38 -8 -73 11t-31 59z" />
<glyph unicode="&#x420;" horiz-adv-x="1208" d="M84 53q24 186 106 461q-42 23 -51 31q-31 21 -32 54.5t20.5 62.5t56.5 49t68 16q5 19 14.5 53t15 54.5t14 53.5t13.5 55.5t11.5 54.5t10.5 56t8 54.5t5.5 56t1.5 54t-2 55.5q-17 27 -14 61.5t31 67t67 41.5q77 14 119.5 21t117 14.5t126 5t114 -15t113.5 -37.5 q67 -34 113 -93.5t64 -128.5t10.5 -144t-40.5 -140q-66 -131 -195 -227t-284 -152q-172 -65 -311 -68q-74 -265 -90 -407q-7 -57 -67 -89q-56 -30 -99.5 -11t-34.5 81zM432 674q96 0 221 47q42 18 76.5 34t75.5 40.5t73 49.5t61.5 59.5t47.5 72.5q38 87 -10.5 178.5 t-140.5 116.5q-114 31 -283 2q0 -38 -2.5 -76t-10.5 -83.5t-12.5 -74.5t-18 -83.5t-18.5 -73.5t-22 -82t-20 -74q-2 -8 -17 -53z" />
<glyph unicode="&#x421;" horiz-adv-x="1060" d="M82 686q3 397 285 631q100 83 211.5 128.5t237 43t235.5 -65.5q49 -29 50 -106q0 -69 -36 -105q-31 -32 -72 -8q-92 54 -192.5 56t-188.5 -37t-168 -111q-194 -168 -188 -434q0 -126 38.5 -244t119.5 -188q64 -56 141 -70t148.5 7t144.5 69q55 36 93 -14q33 -44 26 -108 q-6 -57 -45 -81q-97 -64 -200 -92t-212 -6.5t-193 100.5q-120 115 -177.5 283.5t-57.5 351.5z" />
<glyph unicode="&#x422;" horiz-adv-x="1114" d="M88 1400q18 49 70 46q145 -7 489.5 5t487.5 -5q54 -5 84 -70q29 -62 11 -113q-17 -47 -69 -42q-157 15 -375 8q-27 -77 -46.5 -163.5t-41.5 -208t-32 -167.5q-12 -59 -38.5 -193t-48 -234t-44.5 -193q-8 -29 -36 -45t-62 -14.5t-65 13.5t-47.5 40t-7.5 63q21 89 42 190.5 t45.5 224t39.5 193.5q7 30 41.5 211.5t61.5 274.5q-218 -7 -363 0q-56 3 -86 66q-28 61 -10 113z" />
<glyph unicode="&#x423;" horiz-adv-x="1073" d="M3.5 86.5q4.5 53.5 53.5 96.5t99 22q54 -23 102 0q61 24 119 86q24 24 74 82q-18 30 -34.5 62.5t-31.5 71t-25.5 66.5t-24 75t-20 69.5t-20.5 75t-19 69.5q-13 47 -36.5 136t-34.5 130q-17 73 -29 111q-1 5 -9 32l-5 21q-22 59 34 113q46 46 100 47q47 0 62 -43 q26 -66 46.5 -140t44.5 -174.5t36 -144.5q5 -20 18 -68t20.5 -76t19.5 -68.5t24.5 -76.5t26.5 -69q28 51 31 57q28 49 59.5 109.5t52.5 103t56.5 115t52.5 106.5q84 192 139 287q23 37 59 58.5t72 1.5q33 -19 37.5 -65.5t-16.5 -76.5q-31 -48 -58.5 -103t-61.5 -131.5 t-48 -105.5q-141 -298 -244 -471q-26 -44 -47 -78t-54.5 -83.5t-63.5 -87t-70.5 -80.5t-78 -72.5t-83.5 -55t-90 -35.5t-94.5 -6.5t-100.5 25.5q-44 29 -39.5 82.5z" />
<glyph unicode="&#x424;" horiz-adv-x="1548" d="M90 752q20 135 82.5 253t155.5 202.5t218.5 128t262.5 32.5q27 71 51 119q31 58 90 64q53 5 78 -33q25 -40 -6 -99v-4q-1 -5 -6 -12.5t-6 -9.5q0 -7 -2 -9q227 35 360 -92q80 -80 113 -195t22 -237q-14 -144 -77.5 -270.5t-161 -217t-227 -143t-271.5 -53.5 q-5 -20 -12.5 -59t-12.5 -58q-6 -44 -35.5 -76.5t-72.5 -41.5q-40 -6 -68.5 18.5t-19.5 63.5q13 61 28 165q-246 -15 -370 125q-76 82 -102.5 198t-10.5 241zM311.5 659.5q-1.5 -45.5 9.5 -92.5t29 -86.5t53 -70t82 -43.5q58 -8 121 0q39 255 68 393q49 266 88 438h-8 q-169 16 -287 -117q-129 -141 -150 -333q-4 -43 -5.5 -88.5zM799 373q102 -8 198 25t158 104q126 139 135 329q14 195 -88 308q-43 44 -111 56.5t-137 -7.5q-6 -9 -6 -21q-42 -171 -82 -407q-14 -72 -36 -203.5t-31 -183.5z" />
<glyph unicode="&#x425;" horiz-adv-x="1095" d="M-80 120q-1 58 35 87q225 182 479 512q-109 232 -158 330q-33 70 -63 118q0 7 -2 7q0 2 -2 6q-2 1 -5.5 5.5t-4.5 6.5v2q-9 6 -17 14q-19 22 -15 47t18 45t34 35q36 22 68.5 23.5t54.5 -8.5t45 -38t35 -48.5t31 -57.5q66 -129 135 -280q13 17 79 104.5t91.5 119.5t78 98 t96 115t89.5 97q47 50 100 11q43 -32 53 -92q9 -57 -24 -91q-114 -122 -221 -257t-242 -318q46 -101 132.5 -295.5t129.5 -288.5q23 -50 -23.5 -91.5t-104 -38.5t-87.5 50q-35 76 -102.5 228.5t-102.5 228.5q-125 -158 -239 -280.5t-240 -223.5q-47 -38 -91 9 q-39 43 -40 109z" />
<glyph unicode="&#x426;" horiz-adv-x="1372" d="M86 59q101 490 236 1317q5 37 51.5 67t96 27.5t62.5 -47.5q17 -66 17 -116q0 -33 -37 -70q-97 -612 -182 -1038q46 3 130 -3t109 -6q62 -3 291 7q26 137 126.5 542.5t127.5 632.5q6 52 66 80t108 8q47 -20 41 -78q-27 -230 -128 -638.5t-126 -542.5q90 0 133 -2 q32 0 55.5 -19.5t22.5 -52.5q-3 -72 -44 -198.5t-50 -174.5q-11 -54 -72 -81q-59 -28 -102 -5t-31 84q9 45 39.5 129t40.5 125q-90 0 -270 -7t-269 -7q-34 0 -94.5 2.5t-92.5 3t-93 -3.5q-37 -21 -77.5 -23t-66.5 21t-18 67z" />
<glyph unicode="&#x427;" horiz-adv-x="1193" d="M167 936q4 84 16.5 151t27 152t18.5 135q4 54 66 90q59 35 106 20q44 -14 39 -69q-4 -62 -26 -181t-27 -173q-6 -52 -7.5 -81.5t1 -80t19 -88.5t46.5 -63q42 -35 95 -40.5t106 15.5t100 51.5t93 71.5q49 240 153 596q11 38 47.5 52.5t69.5 -9.5q33 -26 41 -73t-8 -85 q-58 -208 -99 -375q1 -1 11 -6q23 -16 26 -41.5t-6 -47.5t-26 -44q-36 -42 -41 -47q-7 -21 -7 -33q-79 -384 -79 -663q-2 -44 -24 -79.5t-62 -35.5q-39 -1 -63.5 35t-24.5 78q3 262 47 532q-79 -45 -156.5 -68.5t-160 -18.5t-148.5 46q-67 40 -106 102t-50 126.5t-7 148.5z " />
<glyph unicode="&#x428;" horiz-adv-x="1781" d="M82.5 95q2.5 34 17.5 59q9 75 24 151.5t38 165t39 144.5t48 163t44 148q15 53 39.5 152t34.5 136q1 6 6.5 29.5t8 33.5t8.5 31.5t11.5 34t13.5 29.5t18 29.5t22 23.5q20 19 42 31t50 12t49 -20q24 -29 20 -66t-28 -67q0 -6 -4 -8q-3 -10 -9.5 -30t-9.5 -30 q-23 -90 -28 -114q-21 -98 -74 -279q-100 -333 -132 -477q-22 -100 -34 -189q138 -2 465 11q30 142 65 374.5t73 432t91 368.5q11 39 50.5 66.5t76.5 17.5q71 -19 43 -125q-50 -161 -85.5 -355t-67.5 -412.5t-62 -358.5q232 12 340 14q54 470 275 1092q21 61 77 77 q50 14 82 -18q35 -35 11 -100q-202 -569 -258 -1057q38 -17 51 -70.5t-9.5 -101t-74.5 -47.5q-159 0 -596 -20t-676 -9q-35 0 -53 27q-20 13 -23 39q-12 28 -9.5 62z" />
<glyph unicode="&#x429;" horiz-adv-x="1781" d="M86 129q46 171 124 575t144 615q-11 36 21 76q2 2 5 4.5t4.5 4t2.5 3.5q24 43 83 57.5t104 -10t32 -80.5q0 -2 -6 -20q-55 -162 -98 -352t-85.5 -414t-74.5 -359q168 0 338 -6q11 126 61 352.5t62 305.5q2 13 10 61l11 66t11.5 62.5t14.5 67.5t16.5 61t20.5 64t24.5 56.5 t30.5 56.5q23 39 63 60.5t80 11.5q38 -9 49.5 -47.5t-10.5 -71.5q-27 -45 -47 -98t-34 -124.5t-20 -107.5t-17 -118q-10 -63 -62 -298.5t-59 -365.5q262 -8 395 -8q14 135 51 295t75.5 286t80 287.5t61.5 290.5q10 60 68 91q55 29 94 7q39 -23 29 -86q-20 -128 -64.5 -291.5 t-85 -291.5t-77 -288.5t-46.5 -295.5h27q46 0 73.5 -50.5t24.5 -99.5q-31 -196 -131 -321q-44 -54 -98 -17q-45 30 -59 91q-13 55 16 92q35 41 51 76q-196 0 -585.5 12t-585.5 12q-46 0 -68 39q-62 24 -45 82z" />
<glyph unicode="&#x42a;" horiz-adv-x="1234" d="M82 1374q0 38 37.5 63.5t75.5 22.5q151 -11 315 -2q18 21 42 27t48 -6q27 -18 39 -39q39 -27 39 -66q0 -33 -25 -49q-66 -315 -88 -412q63 15 113 22.5t111.5 10t116.5 -12.5t100 -46q72 -54 111 -146.5t36.5 -185.5t-33.5 -182q-31 -80 -85.5 -147t-121.5 -112.5 t-147.5 -79.5t-164 -48.5t-169.5 -20t-164 7.5q-34 4 -47.5 28t-7.5 54.5t25 59.5q-8 37 -2 80q75 405 227 1087q-134 -3 -266 6q-45 4 -80 24.5t-35 61.5zM416 176q149 -3 280 39q204 72 248 180q14 40 16.5 86.5t-7.5 91t-36 81.5t-65 55q-19 10 -41 16t-49 6t-45 0.5 t-52.5 -5t-46 -7.5t-50 -10t-42.5 -9q-2 -2 -8 -2q-52 -258 -102 -522z" />
<glyph unicode="&#x42b;" horiz-adv-x="1650" d="M88 82q20 56 70 80q22 83 42.5 166t43 179.5t38 162.5t40.5 180.5t35.5 162.5t39 180t35.5 167q8 40 45.5 70.5t75.5 23.5q27 -4 41.5 -24.5t14.5 -46t-5 -50.5q-38 -192 -94 -442q224 44 395 -66q81 -51 124 -140t40.5 -183t-37.5 -187q-25 -59 -59 -107t-76.5 -82.5 t-86.5 -60.5t-100 -42t-105.5 -26.5t-113.5 -15.5t-113.5 -6.5t-115.5 -1.5q-31 -26 -66.5 -25.5t-56.5 25.5q-36 6 -49 40t-2 69zM340 174q69 -5 147.5 -0.5t147 16.5t126 46.5t83.5 89.5q27 55 28 117.5t-27.5 119t-82.5 84.5q-142 79 -299 33q-69 -312 -123 -506z M1137 133q34 143 111 565.5t143 647.5q15 52 74.5 54t107.5 -39t33 -93q-67 -227 -144 -650.5t-110 -564.5q-13 -52 -72 -54t-107.5 39.5t-35.5 94.5z" />
<glyph unicode="&#x42c;" horiz-adv-x="1089" d="M86 217q32 103 59 211t53.5 250t38.5 211.5t40.5 253.5t33.5 217q8 53 69 72.5t115 -4.5t46 -76q-10 -70 -39 -220.5t-39 -216.5q97 18 193.5 -3.5t174.5 -80.5q110 -83 152.5 -207t3.5 -255q-29 -95 -97.5 -168.5t-157 -114.5t-190 -61t-202 -16t-188.5 28q-36 8 -47 37 t-3 67q-27 34 -16 76zM324 225q131 -16 245 13q191 43 230 131q35 79 7.5 146.5t-87 114.5t-139.5 68t-150 7q-52 -290 -106 -480z" />
<glyph unicode="&#x42d;" horiz-adv-x="1148" d="M-39.5 104.5q3.5 33.5 17 65t41 49t57.5 10.5q378 -83 596 107q134 117 200 295q-69 2 -147.5 2t-174 -1t-147.5 -1q-40 0 -60.5 32t-6.5 70q15 40 53.5 64t81.5 24q73 0 223 1t224 1q33 239 -72 334q-172 157 -576 10q-37 -14 -62.5 16.5t-25.5 69.5q1 45 27 79.5 t67 49.5q87 32 178 51t192 23t193 -28t152 -101q164 -190 96 -557q0 -12 -6 -27q0 -14 -2 -22q-4 0 -4 -4q-37 -164 -116 -305.5t-201 -243.5q-153 -126 -347.5 -166t-387.5 6q-33 8 -49.5 35.5t-13 61z" />
<glyph unicode="&#x42e;" horiz-adv-x="1814" d="M86 92q73 295 129 598q-17 27 -14 53q6 32 32 50q49 273 95 579q9 51 67.5 75.5t109.5 2.5t42 -84q-15 -93 -46.5 -280.5t-47.5 -280.5q73 0 143 6q33 208 147 342q11 15 39 27q78 84 173.5 145.5t198.5 93.5t210 18.5t197 -77.5q90 -65 141.5 -166t62.5 -214.5 t-0.5 -224t-44.5 -216.5q-33 -104 -87.5 -198t-128 -174t-171.5 -131t-207 -59q-211 -18 -351.5 112.5t-174.5 344.5q-16 101 -16 203q-55 -4 -162 -4q-52 -273 -117 -543q-13 -52 -78 -76q-64 -23 -110 0q-44 23 -31 78zM817 504q13 -101 39.5 -180t81.5 -131 q31 -26 53 -36.5t56 -11.5q85 0 147 35q168 92 260 297q94 205 88 420q-1 66 -11.5 127t-42.5 125.5t-83 93.5q-116 65 -311 -63q-167 -115 -242 -283q0 -2 -1 -6.5t-1 -5.5q-26 -101 -33 -168v-10q-12 -102 0 -203z" />
<glyph unicode="&#x42f;" horiz-adv-x="1136" d="M44.5 -3q-10.5 46 6.5 79q48 100 74 151t74 136t96.5 150t103.5 120q-71 31 -108 57q-81 53 -122.5 135.5t-16.5 171.5q29 98 91 178t141.5 133t177 89t194.5 51.5t196 15.5q29 3 58.5 -14t38.5 -45q33 -18 41 -49q6 -30 6 -64v-14q0 -12 -1 -25t-2.5 -23t-4.5 -24.5 t-4.5 -22.5t-6 -24t-6.5 -22t-7.5 -23.5t-6.5 -21.5q-21 -68 -84 -301q-41 -151 -63 -238t-45 -220t-29 -247q-1 -33 -25 -54t-57.5 -24.5t-67 3.5t-56 30.5t-20.5 56.5q5 200 74 480q-29 0 -59 6q-18 -21 -39 -39q-26 -17 -52 -39t-46.5 -41.5t-45 -51.5t-39.5 -51 t-38 -58.5t-33.5 -56t-33.5 -62t-29 -57.5t-30.5 -61.5t-27.5 -56.5q-18 -41 -51 -65.5t-70 -7.5q-35 14 -45.5 60zM373 979q-8 -50 14 -90t60 -64t91.5 -40.5t99.5 -23.5t93 -9q4 26 8 41q9 33 24 92.5t28 108t28 91.5q4 15 19.5 59.5t23.5 80t6 65.5q-163 -10 -276 -67 q-79 -40 -143 -105.5t-76 -138.5z" />
<glyph unicode="&#x430;" horiz-adv-x="1073" d="M2 326q-2 128 29 256.5t105.5 247t180.5 178.5q180 100 355 41q44 -12 80 -37q42 -9 72.5 -67t15.5 -111q-86 -251 -76 -568q0 -4 -0.5 -18t0 -22t1.5 -20t3.5 -22t7.5 -18q49 20 84 119q29 68 84 49q44 -15 71 -69q29 -57 9 -105q-89 -212 -207 -221q-74 -7 -127.5 41.5 t-79.5 123.5q-2 5 -5 17.5t-5 17.5q-65 -108 -156 -166q-47 -31 -98 -46t-106 -6t-95 48q-71 68 -106 161t-37 196zM188 231q35 -129 141 -59q68 44 129 136q7 12 13 22q42 68 67.5 153.5t47 190t39.5 162.5q-1 0 -4.5 2t-4.5 2q-63 9 -112 -4q-115 -28 -199 -140 q-73 -105 -108.5 -231t-8.5 -234z" />
<glyph unicode="&#x431;" horiz-adv-x="1054" d="M111 647q-22 82 32 117q28 93 84 229q25 66 50.5 120t62 110.5t84 101.5t104.5 74q44 23 109.5 32.5t119 11t113.5 21t99 60.5q42 46 94 18t66 -84.5t-17 -99.5q-90 -101 -217 -127q-39 -7 -110.5 -15t-96.5 -12q-128 -23 -223 -174q59 26 82 31q89 21 158 1.5t119.5 -66 t82.5 -115t46 -144.5t9.5 -154t-26.5 -145q-41 -125 -116.5 -237.5t-174.5 -169.5q-108 -65 -236 -51t-212 110q-166 192 -86 557zM266 354q3 -20 9.5 -48t22.5 -47.5t40 -33.5q51 -28 105 -25t99.5 31t88.5 73t73 101t52 114.5t25.5 115t-5.5 100.5q-15 59 -42.5 88 t-69 22.5t-76.5 -19.5t-90 -55t-83 -66.5t-80 -71.5q-7 -7 -11 -10.5t-10 -9t-11 -9.5q-6 -20 -22 -90q-6 -38 -8 -52t-6 -51t-1 -57z" />
<glyph unicode="&#x432;" horiz-adv-x="980" d="M74 516q0 25 22 47q5 13 29 82q23 65 48 117t61 107t84.5 96t107.5 65q69 27 147.5 28t154 -29t122.5 -87q39 -48 46 -101.5t-15 -101t-58.5 -89t-85.5 -75.5q12 -4 15 -6q115 -55 139 -158t-53 -206q-67 -88 -167.5 -146.5t-209.5 -70.5q-115 -10 -220 34.5t-145 143.5 q-57 144 -18 315q-6 22 -4 35zM303 416q-36 -178 41 -240q21 -18 64 -12q56 3 108 37q16 9 37.5 23.5t48 36.5t43.5 44.5t25.5 47t-6.5 44.5q-16 27 -53.5 40.5t-74 11.5t-69.5 -7q-18 -6 -45 -6q-57 -14 -119 -20zM354 608q92 23 201 90q12 7 27 18t33 26.5t31 32t20 33 t0.5 32t-27.5 26.5q-27 15 -54 16.5t-50 -9t-45.5 -31t-41.5 -46.5t-36.5 -58.5t-31 -64t-26.5 -65.5z" />
<glyph unicode="&#x433;" horiz-adv-x="923" d="M43 309q6 86 66 150q42 47 103 87.5t103.5 60.5t129.5 55.5t116 48.5q1 0 10 3t12.5 4.5t11.5 5t12 6t9 7t7.5 9t3.5 10.5q10 76 -41 116q-22 15 -47.5 21t-45 6.5t-51 -8.5t-45.5 -14.5t-50 -21t-44 -19.5q-35 -16 -83.5 -10t-69.5 40q-22 34 -1.5 70t58.5 53 q147 59 210 73q72 16 138 13q75 -2 151.5 -37.5t114.5 -95.5q38 -68 39 -141t-43 -135q-8 -11 -18 -21t-18.5 -18t-22.5 -17t-22 -14.5t-25 -14.5t-24 -12.5t-26.5 -12t-24.5 -11t-27 -11.5t-25 -10q-10 -4 -51 -18.5t-70.5 -25.5t-71 -31.5t-67 -40t-42.5 -47t-14 -56.5 q13 -84 71.5 -128.5t133 -38t135.5 58.5q47 43 113 24q53 -15 68 -56q17 -46 -33 -91q-116 -97 -275.5 -112t-285.5 63q-73 45 -115.5 121.5t-36.5 162.5z" />
<glyph unicode="&#x434;" horiz-adv-x="978" d="M-121 -524q3 76 45.5 138.5t112.5 121.5q97 82 297 182q5 3 16.5 9.5t16.5 9.5q-86 -6 -160 47t-117 138.5t-51 182.5q-16 186 46 367.5t194 298.5q70 65 158.5 99.5t176.5 21.5q79 -12 127.5 -53t55.5 -107q49 7 78.5 -14.5t15.5 -67.5q-34 -119 -54.5 -268t-28 -270 t-25 -272t-44.5 -267q-32 -142 -81 -249.5t-136 -189.5q-59 -57 -129.5 -93.5t-152.5 -47.5t-160 21q-84 36 -144.5 107.5t-56.5 154.5zM103 -489q0 -19 6 -31q39 -69 98 -92q43 -13 79 -4t70.5 39.5t58 63t40.5 67.5q51 126 73 266q-200 -100 -274 -148q-39 -24 -61 -39.5 t-48.5 -43t-38.5 -54.5q-3 -5 -3 -24zM228 513.5q-16 -102.5 16 -204.5q15 -40 27 -64.5t37.5 -52t58.5 -36.5q38 -14 82 12t71 65q41 54 72 142q22 238 59 393q-49 20 -43 84q-10 10 -22 10q-27 10 -54 10q-54 0 -90 -16q-99 -45 -147 -147q-51 -93 -67 -195.5z" />
<glyph unicode="&#x435;" horiz-adv-x="1021" d="M74 168q-72 173 20 450q96 274 252 369q74 48 153 71.5t165.5 16t160.5 -52.5q90 -52 132 -142.5t8 -183.5q-19 -50 -57 -90.5t-87.5 -67t-99.5 -43t-105 -26.5q-162 -33 -340 -33q-13 -89 5 -162q15 -52 52.5 -90.5t83 -55t97 -6t92.5 51.5q32 32 75 42.5t85 -7.5 q36 -18 46 -55t-17 -68q-73 -73 -179 -110.5t-210 -32.5t-196.5 62.5t-135.5 162.5zM324 612q95 0 174 13q2 0 43 5.5t57.5 9.5t48.5 12t52 20.5t32 29.5q29 44 10.5 96.5t-63.5 75.5q-56 30 -115 20t-104 -56q-90 -96 -135 -226z" />
<glyph unicode="&#x436;" horiz-adv-x="1513" d="M-41 96q0 40 36 62t79 26q41 0 78.5 47.5t60.5 102.5q61 138 78 266q27 189 -6 272q0 2 -1 4t-1 3h-105q-43 0 -80 24t-37 64q0 41 38 64.5t79 23.5q129 0 181 -13q87 -21 130 -86q66 -103 41 -315q37 4 109 4q38 212 117 410q19 39 52.5 57t72.5 -2q24 -15 33.5 -42 t7 -54t-12.5 -53q-54 -131 -94 -320q78 0 113 -4q18 88 48.5 161.5t78 137.5t120.5 100.5t164 36.5q45 2 85 -19.5t46 -62.5q8 -37 -24 -65.5t-70 -28.5q-45 0 -81.5 -23t-60 -57t-41.5 -81.5t-27 -87t-15 -83.5q-6 -41 -8.5 -81.5t1.5 -93.5t16.5 -94t42 -72t73.5 -38 q41 -6 66.5 -27.5t28.5 -47.5t-7.5 -50.5t-41 -38.5t-71.5 -8q-69 10 -126 40t-95.5 73t-65.5 98.5t-39.5 115t-13.5 124.5q-22 0 -63.5 2t-61.5 2q-36 -334 -41 -391q-13 -117 -90 -129q-38 -4 -65.5 30t-22.5 74q7 60 20 199.5t23 216.5q-31 0 -43 -4q-9 0 -26.5 -1 t-26.5 -1v-4q-3 -1 -9 -4t-9 -4q-23 -88 -56 -160.5t-82.5 -137.5t-122 -103t-161.5 -42q-40 -2 -77.5 23.5t-37.5 64.5z" />
<glyph unicode="&#x437;" horiz-adv-x="915" d="M-77 96q17 42 72 67q59 27 107 5q59 -27 136.5 -39t159.5 3.5t124 64.5q22 24 37 62.5t12.5 80t-30.5 63.5q-29 25 -73 27.5t-79.5 -3t-79.5 10.5q-33 4 -51 22.5t-20 43.5q-28 61 43 90q19 9 64.5 25.5t83 32.5t78 37.5t66.5 50t31 61.5q4 24 -2.5 41.5t-22 26 t-34.5 13.5t-46 3t-49.5 -4.5t-52 -9t-47.5 -11t-41 -11t-28 -7.5q-63 -16 -113 29q-44 40 -36 85t71 62q46 11 69.5 16.5t66 13.5t71.5 10.5t65.5 3t69.5 -4.5q103 -11 185.5 -73.5t98.5 -160.5q23 -160 -153 -264q49 -28 69 -55q64 -79 54 -192t-76 -189 q-84 -96 -221 -139.5t-277 -33.5t-258 62q-66 30 -44 84z" />
<glyph unicode="&#x438;" horiz-adv-x="974" d="M47 440q10 99 49.5 276.5t50.5 246.5q6 41 28 67t49 28.5t52 -7.5t39 -41t7 -72q-10 -59 -45.5 -208t-45.5 -232q-42 -249 29 -279q64 -27 189 55q77 51 155 129q5 22 30.5 131t34 152t19 123.5t10.5 146.5q2 63 57 100q51 34 94 15t42 -86q-1 -97 -22.5 -217t-46 -215.5 t-45 -216.5t-21.5 -221q-2 -62 -57 -98q-50 -33 -93 -13q-43 19 -43 86v6q-250 -188 -401 -82q-147 109 -115 426z" />
<glyph unicode="&#x439;" horiz-adv-x="1048" d="M43.5 213q0.5 52 0.5 107q1 12 1 18q6 118 46.5 326t49.5 278q4 32 30 53t60.5 24.5t67.5 -3.5t54 -31.5t18 -60.5q-9 -81 -40.5 -234.5t-41.5 -228.5q-15 -120 -13 -195q0 -57 5 -78q26 13 30 17q92 49 148 88q112 83 153 125q19 19 35 39q5 151 25.5 266.5t72.5 216.5 q19 39 57 57.5t83 10.5q39 -6 72.5 -36.5t13.5 -66.5q-71 -146 -88 -354q53 -36 18 -96q-21 -31 -29 -41q-1 -32 -3.5 -94t-4 -100t-6 -90t-10.5 -95q-9 -52 -69.5 -67t-114.5 14.5t-46 87.5q10 64 13 112q-48 -35 -96 -63q-54 -34 -92 -54t-97 -43t-112.5 -21.5t-98.5 28.5 q-46 29 -69 80.5t-22.5 103.5zM340 1321q-3 57 59 95q58 35 112 22q51 -12 54 -64q3 -50 29 -61.5t70 2.5q88 24 172 98q48 41 103 27t65 -59t-39 -97q-41 -35 -99.5 -67t-126 -57.5t-135.5 -32.5t-124 5.5t-94.5 60.5t-45.5 128z" />
<glyph unicode="&#x43a;" horiz-adv-x="894" d="M43 47q57 534 201 961q24 70 79 66q46 -4 76 -52q31 -51 13 -104q-44 -135 -84 -293q47 30 89.5 70t86 96.5t67.5 90.5t70.5 107t58.5 92q24 35 62 37t61 -28q29 -35 30 -82.5t-24 -83.5q-12 -18 -49 -76.5t-56.5 -87t-52 -75t-63.5 -83.5t-63 -70q14 -17 27.5 -38 t28.5 -45.5t20 -32.5q112 -179 147 -279q20 -62 -23 -116q-36 -46 -81 -42q-46 5 -66 68q-4 8 -12 31q-4 6 -13.5 23.5t-15.5 25.5q-44 79 -70 117q-8 16 -18 31.5t-23.5 35.5t-19.5 29q-15 18 -29 39l-10 8q-6 4 -12 10q-51 -27 -72 -35q-4 -1 -15 -3.5t-16 -2.5 q-31 -152 -51 -344q-8 -70 -54.5 -87.5t-88 20.5t-35.5 102z" />
<glyph unicode="&#x43b;" horiz-adv-x="1083" d="M-78 122q15 63 68 77q198 50 289 284q37 97 86 286.5t61 229.5q13 38 45.5 56t71.5 -2q3 -2 14 -13q55 6 163 4t165 3q57 2 111.5 -30t41.5 -87q-63 -217 -89.5 -311.5t-68.5 -269.5t-65 -316q-11 -53 -71.5 -61t-113 28.5t-44.5 91.5q51 283 190 778q-131 0 -194 -14h-7 q-11 -40 -27.5 -105.5t-28 -110.5t-30 -109t-35 -109.5t-42 -102t-51.5 -97.5t-62.5 -85t-77 -74.5t-92.5 -56t-111 -39.5q-53 -13 -82 39.5t-14 115.5z" />
<glyph unicode="&#x43c;" horiz-adv-x="1312" d="M47 129q83 243 123 391q36 122 53 238q9 71 6 96q0 4 -3 12q-2 6 1 2q2 -1 6 -6q-51 47 -11 99q33 44 95 55q57 10 91 -21q34 -25 47 -77q26 -16 44.5 -43.5t40 -79.5t25.5 -60q7 -18 25 -65t35.5 -87t33.5 -69q20 23 82 93.5t91 104.5t76.5 92.5t83.5 109.5t67 104 q18 30 50 44.5t61 11t47 -29.5t10 -67q-9 -45 -43.5 -216t-48.5 -247.5t-34 -208t-30 -239.5q-5 -61 -61 -94q-52 -31 -94 -9q-42 21 -37 88q19 216 82 539q-39 -46 -128.5 -147.5t-136.5 -157.5q-21 -23 -55 -31.5t-63 10.5q-23 17 -43 40t-37.5 53.5t-28.5 52.5 t-27.5 60.5t-23.5 53.5q-1 2 -5 12t-7 15q-14 -54 -33.5 -117.5t-34 -109t-38.5 -120t-36 -112.5q-17 -52 -84 -67q-64 -14 -108 16q-44 31 -25 88z" />
<glyph unicode="&#x43d;" horiz-adv-x="1120" d="M47 119q67 177 105 364q-11 26 -11 43q7 32 29 43q30 181 41 293q-7 15 -4 43q2 7 5.5 22t4.5 19q9 54 68.5 68t114 -17t49.5 -86q-13 -170 -41 -319q50 2 149.5 8t149.5 8q31 219 116 359q24 39 64.5 60.5t83.5 14.5q41 -6 58.5 -40t-3.5 -72q-85 -148 -113 -391 q0 -1 2.5 -6t2.5 -7q3 -33 -15 -53q-2 -27 -8 -95t-9.5 -104t-11 -90t-16.5 -98q-11 -52 -76 -81q-64 -29 -112 -9q-46 19 -33 76q32 140 47 358q-303 -12 -309 -12q-39 -172 -111 -377q-11 -30 -40.5 -44t-63.5 -8.5t-64.5 21t-45.5 45.5t-3 64z" />
<glyph unicode="&#x43e;" horiz-adv-x="1054" d="M84 460.5q-4 118.5 25.5 238.5t91.5 212q34 43 69.5 42.5t63.5 -33.5q84 77 163 121.5t165 41.5q81 -2 148.5 -53.5t106 -124.5t50.5 -153q19 -148 -18.5 -303.5t-133 -288.5t-231.5 -195q-113 -51 -207 -25.5t-160.5 102.5t-97.5 189q-31 111 -35 229.5zM274 330 q7 -31 16.5 -57.5t26 -54.5t38.5 -42t52.5 -20.5t67.5 10.5q143 60 230 196t92 295q0 33 -6.5 66t-20.5 66.5t-43 52t-68 12.5q-19 -3 -39.5 -10.5t-35.5 -14t-37 -21.5t-32.5 -22t-34.5 -27.5t-30 -26t-32 -30t-29 -26.5q-44 -42 -92 -10q-60 -162 -23 -336z" />
<glyph unicode="&#x43f;" horiz-adv-x="1073" d="M45 57q-9 47 6 82q61 183 107 391q3 13 12.5 59t13 67t9 59.5t7 71.5t-0.5 67q-32 48 -7 120q21 61 61 78q38 15 71 -24q46 -49 57 -137q122 74 283 131q39 13 83.5 21.5t98 9.5t92 -23.5t47.5 -73.5q6 -26 4 -65.5t-5.5 -67t-12.5 -67t-16.5 -67t-18 -65.5t-16.5 -63 q-21 -73 -31 -114t-21 -105.5t-8.5 -121t17.5 -111.5q16 -56 -34 -114q-44 -50 -92 -52q-47 -1 -63 53q-22 79 -24.5 163.5t12.5 169t33.5 158.5t42.5 167.5t36 160.5q0 3 1.5 10t1.5 13h-7q-58 0 -149 -35q-155 -61 -273 -141q-3 -20 -11.5 -56.5t-10.5 -50.5 q-61 -293 -131 -504q-13 -39 -49 -60t-72 -1q-34 20 -43 67z" />
<glyph unicode="&#x440;" horiz-adv-x="1064" d="M-80 -338q26 128 93.5 387.5t105.5 464t39 393.5q0 96 92 140q37 12 76 -2.5t39 -55.5q0 -17 -3 -41q173 103 351 88q139 -9 209 -110.5t59 -243.5q-9 -86 -44 -177.5t-90.5 -174t-128.5 -154.5t-157 -118.5t-176.5 -65t-187.5 5.5q-49 -190 -70 -307q-9 -45 -42 -78 t-77 -37q-39 -8 -67 18.5t-21 67.5zM250 219q88 -22 182.5 6.5t169 89.5t126.5 147.5t60 174.5q8 82 -29.5 133t-119.5 47q-92 -3 -168 -35q-73 -23 -127 -71q-27 -224 -94 -492z" />
<glyph unicode="&#x441;" horiz-adv-x="870" d="M4 373q11 163 74.5 304.5t181.5 233.5q119 88 255 119.5t276 -0.5q64 -14 58 -72q-5 -52 -54 -94q-50 -42 -99 -30q-218 47 -348 -80q-66 -66 -103 -164t-34 -193q2 -78 32 -140t97 -79q143 -42 319 41q25 10 49.5 13.5t49 -6t33.5 -36.5q14 -38 -8.5 -80.5t-59.5 -58.5 q-314 -139 -516 -61q-74 30 -124 92t-68.5 136.5t-10.5 154.5z" />
<glyph unicode="&#x442;" horiz-adv-x="1523" d="M47 113q38 167 95 473t79 413q11 39 46 60t69 0q37 -21 51 -65t4 -89q0 -2 -1 -3.5t-1 -2.5q51 29 90.5 50t91.5 43.5t92.5 33t83.5 12t73 -12.5t53 -48t32 -88q0 -4 2 -13.5t2 -13.5q3 2 23.5 18t25 19.5t23 17t26 18.5l24 16t26.5 16.5t24.5 13.5t27.5 14t26 11 q49 18 98 22t93 -8t74 -47.5t36 -91.5q7 -91 4 -159.5t-19.5 -159t-33.5 -158t-36.5 -157t-29.5 -155.5q-8 -54 -73 -78q-63 -24 -114 -1q-50 22 -42 75q10 76 63 315.5t55 372.5q0 48 -4 66q-22 -11 -37 -21q-42 -27 -131.5 -94.5t-138.5 -97.5q-5 -32 -17 -95t-14 -77 q-23 -111 -88 -365q-14 -53 -77 -65.5t-115.5 19t-38.5 83.5q5 18 29.5 109.5t32 122t25 108.5t24.5 123.5t13.5 109t6.5 119.5v8q-4 -3 -15.5 -9t-15.5 -9q-46 -23 -141 -79t-146 -81l-24 -8q-100 -516 -125 -625q-9 -39 -43.5 -58.5t-69.5 -0.5q-36 21 -49.5 65t-3.5 89z " />
<glyph unicode="&#x443;" horiz-adv-x="942" d="M-80 -305q1 39 33 61q35 32 90 25v4q16 0 119 147q63 85 112 172q-34 14 -47 56q-27 114 -67.5 372t-75.5 392q-8 30 9 57.5t48 41.5t65 17.5t63 -13t38 -50.5q24 -90 42.5 -191.5t38.5 -228.5t32 -192q69 124 185 362.5t140 286.5q28 51 106 57q71 6 110 -29 q34 -30 12 -75q-52 -98 -189.5 -375t-220.5 -426q-166 -298 -272 -422q-178 -207 -338 -109q-34 21 -33 60z" />
<glyph unicode="&#x444;" horiz-adv-x="1419" d="M49.5 451q15.5 89 56.5 176q159 322 351 405q160 67 258 33q56 180 63 301q2 41 33 76t70 31q71 -12 71 -130q-7 -118 -67 -325q4 0 11.5 2t12.5 2q58 17 111 22q129 12 215 -79q53 -54 79 -133.5t23.5 -158.5t-26.5 -151q-101 -317 -258 -448q-139 -120 -351 -103 q-36 -209 -63 -313q-10 -38 -46.5 -61.5t-72.5 -4.5q-67 34 -41 150q30 130 51 235h-44h-47t-44 1t-47 3t-42.5 6.5t-44 10t-39 15t-39.5 21t-33 27.5t-31 35q-53 77 -69 171.5t-0.5 183.5zM263.5 395q-2.5 -57 18.5 -117t62 -88q15 -11 33.5 -18t46.5 -8.5t41.5 -2t50.5 1 t41 1.5q6 42 25 195t32 235q23 153 43 240q-50 11 -61 53q-70 0 -123 -53q-66 -63 -122 -154.5t-75 -177.5q-10 -50 -12.5 -107zM733 164q80 -10 140 8t100 80q3 6 22.5 38t25.5 43t23 41t24 46t19 43.5t17.5 47.5t10 44.5t5.5 46.5q1 32 -4.5 72.5t-19 84.5t-42 70.5 t-67.5 20.5q-23 -3 -76 -15.5t-80 -15.5q-30 -131 -51 -305q-7 -57 -47 -350z" />
<glyph unicode="&#x445;" horiz-adv-x="909" d="M-37.5 64.5q-3.5 30.5 4.5 58.5t23 53q10 15 23 31t23 27t26 28.5t24 26.5q18 18 33.5 39t36 51t28.5 41q61 82 111 137q-17 31 -33 53q-20 40 -37.5 79.5t-42 99.5t-32.5 79q-12 18 -30 75.5t-1 84.5v2q19 47 59.5 56.5t75.5 -25.5q15 -14 26 -35t24.5 -57.5t14.5 -40.5 q54 -128 82 -176q1 -4 21 -43q36 40 107.5 125t129.5 149t117 117q31 27 67 17.5t54 -46.5q18 -40 6.5 -84.5t-45.5 -75.5q-35 -34 -68 -68t-75.5 -83t-60 -68.5t-73 -85.5t-61.5 -74q25 -44 99 -176t114 -204q20 -37 16.5 -86t-34.5 -78q-35 -26 -70 -14t-53 49 q-18 32 -90.5 160.5t-110.5 199.5q-66 -82 -119 -158q-22 -30 -78.5 -94.5t-80.5 -103.5q-22 -35 -62 -40.5t-67 25.5q-18 22 -21.5 52.5z" />
<glyph unicode="&#x446;" horiz-adv-x="1132" d="M43.5 220q-4.5 52 4.5 114.5t17.5 101t24.5 103.5l6 24q6 27 32 126.5t36.5 164t7.5 129.5q-1 33 22 56t57 28t68.5 0t58.5 -28t25 -56q4 -95 -19.5 -206.5t-55.5 -233t-41 -205.5q0 -5 -5 -40.5t-6 -54t3 -44.5q29 0 43 2q146 22 294 116q17 11 58 25q9 50 28.5 164 t31 178.5t34 158t47.5 169.5q12 40 45 69t74 19q37 -11 50 -55t1 -84q-38 -106 -64 -232t-49.5 -273t-44.5 -237h7q8 0 23 2t20 2q45 8 92 2q37 -3 59.5 -32t21.5 -64.5t-20 -69.5q-10 -14 -19 -30t-15.5 -29t-14.5 -31.5t-12.5 -29.5t-12.5 -33t-10.5 -30.5t-11 -33.5 t-10.5 -32q-10 -41 -43 -70t-72 -19q-39 11 -52 56.5t1 79.5q20 79 45 135q-44 0 -74.5 9.5t-54.5 37.5q-28 30 -35 74q-143 -70 -279 -84q-39 -4 -67 -5t-67 2t-67 13t-54 32t-39 54q-18 43 -22.5 95z" />
<glyph unicode="&#x447;" horiz-adv-x="1001" d="M84.5 619q7.5 64 23.5 123t34 129.5t20 117.5q2 45 29.5 83.5t70.5 47.5q40 8 65 -21t23 -69q-1 -31 -8 -67.5t-13 -59.5t-19 -68.5t-17 -60.5q-1 -6 -6 -25t-7.5 -30.5t-5.5 -30.5t-2 -32.5t4.5 -28.5t12 -25.5t22.5 -17.5q119 -56 363 78q8 33 31.5 143.5t33.5 146.5 q-3 44 16.5 86t59.5 58q38 16 68 -8t35 -64q1 -23 1 -35t-4 -33.5t-6.5 -33t-8 -32.5t-7.5 -32q-29 -164 -57 -268q-8 -35 -36 -162t-48.5 -208t-46.5 -157q-16 -43 -47 -72t-70 -18q-38 10 -51.5 54t-1.5 84q16 43 29 89.5t30 118t22 91.5q-287 -132 -438 -15 q-56 44 -78.5 102t-15 122z" />
<glyph unicode="&#x448;" horiz-adv-x="1478" d="M42 262q-4 83 9 169.5t30 161t40 168t33 152.5q3 16 -0.5 51.5t1.5 61t29 41.5q33 19 70.5 -1.5t52.5 -57.5q13 -37 14.5 -84t-2 -76t-15.5 -89.5t-15 -80.5q-8 -44 -25 -122.5t-29 -143.5t-16 -121v-88q27 -11 94 35q57 37 111 87.5t88 102.5q17 25 47 25q49 154 66 235 q9 49 24.5 146.5t24.5 144.5q13 56 76 83q60 26 102 4q44 -24 29 -87q-9 -45 -26.5 -141.5t-33 -169t-35.5 -138.5q-49 -176 -49 -272v-14v-16t0.5 -15.5t2 -17.5t4 -15.5t6.5 -15t10 -12.5q2 -2 33.5 8.5t44.5 17.5q138 65 204 156q25 36 72 47q1 4 3.5 19.5t2.5 23.5 q67 429 94 557q6 43 38 77.5t71 33.5q42 -3 60 -40t10 -77q-50 -263 -90 -557q-3 -20 -12.5 -76t-14 -86.5t-9 -75t-3.5 -78.5q3 -64 -50 -108q-47 -38 -89 -23q-42 14 -46 78v78q-70 -58 -147 -100.5t-156.5 -65.5t-144 3.5t-92.5 107.5q-1 8 -6.5 25t-6.5 22 q-78 -75 -149 -111q-60 -30 -120.5 -32.5t-112.5 30.5t-74 100q-24 73 -28 156z" />
<glyph unicode="&#x449;" horiz-adv-x="1536" d="M42 261q1 26 7.5 73.5t9.5 64.5t14 72.5t13 63.5q74 319 104 432q14 52 80 74q65 21 111 -5q44 -25 29 -82q-4 -14 -33.5 -124.5t-38 -146.5t-27.5 -120.5t-27.5 -148t-11.5 -127.5q0 -107 7 -107q62 12 120 53q36 20 72.5 44.5t81.5 56.5t70 49q6 6 6 8q26 170 100 572 q9 60 68 91q53 29 94 8q42 -22 31 -89q-7 -37 -23 -124t-25 -135.5t-21.5 -120.5t-21.5 -135.5t-16 -125.5q-12 -82 -12 -129q0 -2 1 -11t1 -12q4 -2 16 -2q4 -3 18 -0.5t19 2.5t19.5 5t20 6.5t19 8t18.5 9t18 8.5t16 8q65 33 155 90q85 408 135 583q8 30 17 58q21 70 75 74 q44 4 75 -38q33 -45 16 -103q-68 -223 -154 -662q79 8 111 -24q20 -21 32 -46t18 -45t2.5 -51t-5 -47t-15 -52t-18 -47t-22.5 -51t-21 -46q-18 -37 -54 -49t-69 14t-38 75.5t14 84.5q4 12 22 47q-68 -7 -102 24q-28 36 -37 72q-70 -42 -119 -67t-118 -43t-128 -11 q-133 15 -133 191q-116 -78 -182 -107q-50 -24 -105.5 -36.5t-112.5 -11t-100 34.5t-57 95q-6 31 -8 67.5t-1 62.5z" />
<glyph unicode="&#x44a;" horiz-adv-x="1038" d="M84 915q-5 40 23 72.5t71 52.5q18 9 45 9q0 4 2 4q117 20 246 20q19 8 49 4q39 -12 48.5 -54.5t-7.5 -76.5q-54 -121 -100 -319q86 30 170.5 38.5t166 -17.5t122.5 -91q39 -64 36 -129.5t-32 -125.5t-79.5 -114t-106.5 -94.5t-113 -66.5q-206 -86 -324 -21 q-102 61 -98 225q9 114 63 371q25 132 76 281q-58 -3 -111 -15q-18 -6 -34 -6h4q-40 -9 -74.5 2.5t-42.5 50.5zM402 281q0 -34 10 -52t35 -29.5t65 -4.5q67 16 179 90.5t52 124.5q-40 33 -100.5 39t-117.5 -9t-107 -43q-8 -37 -12 -59.5t-4 -56.5z" />
<glyph unicode="&#x44b;" horiz-adv-x="1308" d="M43 164q-4 50 5.5 101t31.5 117.5t29 94.5q7 29 28 113t30 125t19 108t11 123q0 56 63 90q60 33 113 18q51 -15 49 -69q-3 -147 -49 -348q71 23 135.5 28t128.5 -14t108 -67q56 -61 62.5 -137t-28 -145t-88.5 -128t-116 -96q-45 -28 -108 -51t-135 -33t-134 -1t-105.5 52 t-49.5 119zM265 206q4 -16 16 -22q48 -32 129 2q32 15 64.5 38t63.5 57t41 70.5t-4 76.5q-15 34 -50.5 45.5t-75 3t-76.5 -26t-60 -38.5q-5 -9 -9.5 -25.5t-6.5 -21.5q-1 -3 -9.5 -29.5t-13 -45t-9 -43.5t-0.5 -41zM858 109q-1 32 4.5 68.5t16 83t14.5 67.5q14 84 47 225 q90 329 111 446q12 72 63 75q44 3 81 -42q41 -49 30 -106q-7 -44 -16 -87.5t-22 -95.5t-21 -82.5t-26 -96t-24 -87.5q-34 -145 -47 -225q-3 -14 -13 -50t-15.5 -64t-4.5 -46q0 -43 -21.5 -76.5t-62.5 -29.5q-40 4 -67 43t-27 80z" />
<glyph unicode="&#x44c;" horiz-adv-x="931" d="M51 403q18 21 29 41q12 47 44 160t52.5 196.5t34.5 160.5q11 54 72 71t115.5 -11t47.5 -83q0 -1 -2 -12.5t-4 -18.5q0 -12 -6 -24q-27 -124 -65 -248q2 0 14.5 3t19.5 3q68 11 138.5 11t142.5 -24.5t115 -70.5q39 -43 46.5 -102t-7.5 -112t-45 -105q-127 -195 -318 -232 q-69 -12 -137.5 -11.5t-137 28t-110.5 79.5q-65 81 -35 230q-25 28 -4 71zM291 180q51 -26 106 -11.5t101 51.5t78 89t38 101q4 18 1.5 35t-21.5 24q-61 18 -125 2q-109 -19 -176 -109q-40 -164 -2 -182z" />
<glyph unicode="&#x44d;" horiz-adv-x="843" d="M-78.5 55.5q-6.5 32.5 5.5 64.5t34.5 59.5t54 33.5t62.5 -12q67 -46 171 -37.5t165 67.5q74 72 123 199q-163 -6 -318 -6q-42 0 -74.5 23.5t-25.5 62.5q6 41 45 64.5t84 23.5q60 0 325 10q21 205 -104 250q-142 47 -285 -18q-37 -17 -66 12.5t-32 69.5q-1 44 22.5 81 t63.5 56q69 30 146.5 40.5t157 -3.5t140.5 -54q55 -36 89.5 -96.5t45.5 -130t9 -137t-15 -133.5q-76 -376 -282 -518q-120 -81 -252.5 -89.5t-255.5 68.5q-27 17 -33.5 49.5z" />
<glyph unicode="&#x44e;" horiz-adv-x="1452" d="M43 115q20 169 82 444q31 144 45 197q3 12 12 42t14 47t9.5 42.5t5.5 46.5q2 55 60.5 84t116 12.5t56.5 -69.5q-2 -32 -6 -65t-13 -73t-14 -62t-18.5 -73t-17.5 -65q72 3 147 12q0 1 4.5 11.5t8.5 15.5q6 13 20.5 46t23.5 52t23.5 46.5t29.5 49t32 39.5q22 34 63 59 q61 39 135 63t151 27t145 -15.5t121 -70.5t75 -133q13 -47 14.5 -97.5t-8 -102t-22.5 -95t-33 -96.5q-70 -191 -215 -313q-39 -34 -81.5 -62t-95.5 -51.5t-102.5 -28.5t-103.5 7q-100 30 -163.5 100.5t-78.5 171.5q-10 80 -2 145q-71 -6 -141 -6q-41 -229 -50 -305 q-5 -31 -31.5 -51.5t-61 -23.5t-67.5 4.5t-53.5 32.5t-15.5 61zM686 340q5 -37 18.5 -74.5t43 -69t67.5 -28.5q94 5 191 123q73 91 117 221.5t18 230.5q-14 47 -43.5 75t-67 35t-77 2t-79.5 -21q-17 -26 -47 -39q-7 -2 -14 -13t-15 -28.5t-10 -22.5q-7 -14 -19.5 -40 t-23 -48t-18.5 -43q-62 -145 -41 -260z" />
<glyph unicode="&#x44f;" horiz-adv-x="919" d="M3 28q-1 28 10.5 51t29.5 44q100 123 225 227q-82 33 -131 88q-77 91 -70 201t83 201q80 93 197 146t245 61q31 5 78 1t91.5 -12t78 -35t37.5 -67q5 -28 -13 -57q-30 -117 -56 -238t-63 -311.5t-47 -239.5q-11 -55 -72 -83q-59 -27 -103 -4t-31 85q7 32 25 120.5 t28 135.5q-20 -17 -39 -25q-204 -153 -338 -313q-25 -33 -68.5 -42t-74.5 18q-21 20 -22 48zM302 672q-6 -41 6 -74.5t37.5 -60t63.5 -30.5t83 13q44 22 88 6q8 36 33 154.5t40 183.5v4q-4 0 -13 1t-13 1h-45h-9q-6 0 -10 -2q-161 -26 -229 -120q-26 -35 -32 -76z" />
<glyph unicode="&#x451;" horiz-adv-x="1032" d="M41 336q0 174 75 335t210 265q81 59 176.5 88.5t189.5 17.5q86 -11 149 -66t88.5 -134.5t8.5 -161.5q-13 -62 -44 -109t-78 -78t-97 -50.5t-115 -34.5q-88 -21 -231 -25q-3 0 -47 -4t-66 -8h-4q0 -108 41 -183q54 -97 141 -106q67 -1 157 35.5t161 87.5q19 14 46 20 t54.5 -1.5t42.5 -30.5q18 -24 10.5 -51.5t-23 -47.5t-36.5 -37q-127 -93 -293 -141q-133 -35 -213 -22q-79 14 -138.5 56.5t-94.5 103.5t-52.5 132t-17.5 150zM285 563q44 6 126.5 11t118.5 10q105 11 179 43q4 2 7 2l2 4l1 6q10 31 6 82q-10 48 -36 79t-60.5 41.5t-74 5.5 t-77.5 -24q-30 -12 -80 -55q-54 -73 -67 -98q-23 -36 -45 -107zM356 1243q17 51 21 60v10q0 39 33 61t75 17q40 -3 79.5 -33t39.5 -68t-24 -116q-13 -39 -57.5 -52t-78.5 2q-40 10 -70 45t-18 74zM686 1237q4 14 16 45t17 49q13 41 43 55q42 20 84 11q41 -5 80 -39 q12 -12 19.5 -32t0.5 -36q-11 -42 -31 -94q-9 -37 -43 -53q-43 -19 -86 -13q-45 9 -77 41q-31 36 -23 66z" />
<glyph unicode="&#x452;" horiz-adv-x="1114" d="M43 74q22 85 55 162q45 196 156 606h-84q-69 0 -102 52q-29 46 -5 86t89 40q24 0 74 1t77 1q14 53 41.5 158.5t42.5 158.5q10 40 45.5 69t73.5 19q27 -8 41 -33t13.5 -53t-5.5 -55q-59 -216 -68 -254q101 8 232 8q69 0 103 -52q30 -46 7 -86t-88 -42q-172 0 -305 -8 q-37 -141 -57 -225q86 71 205 106q162 41 266.5 -19.5t130.5 -224.5q19 -137 -2.5 -288.5t-73.5 -292.5q-25 -68 -53.5 -123t-70.5 -109.5t-99 -86t-125 -33.5q-42 0 -80 23t-41 61q0 41 35.5 64.5t77.5 25.5l2 4l6 2q31 31 45 53q55 83 86 186q43 134 62.5 245t3.5 214 q-8 55 -32 86.5t-47 38t-46 0.5q-72 -34 -132.5 -92t-103.5 -131t-73.5 -147t-51.5 -156q-7 -35 -65 -68t-92 -22q-31 9 -52.5 54t-15.5 77z" />
<glyph unicode="&#x453;" horiz-adv-x="903" d="M2 256q-3 112 104 215q92 82 244 158q141 65 201 129q19 21 30 37.5t15.5 34t-9.5 30.5t-46 19q-57 13 -127 -7.5t-125 -58.5q-48 -33 -115 -6q-54 22 -67 63q-13 44 36 78q60 42 144 69.5t171.5 35t171 -17.5t136.5 -83q40 -44 49.5 -92.5t-5.5 -90t-49 -83.5t-72.5 -73 t-82.5 -58q-37 -23 -115.5 -63t-115.5 -64q-31 -20 -48 -32t-44.5 -35t-42.5 -47.5t-17 -49.5q-1 -57 40.5 -93t98.5 -38q124 0 259 86q50 31 117 4q55 -22 68 -61q14 -42 -36 -76q-89 -57 -192.5 -91.5t-221.5 -32.5t-202 61q-147 103 -152 233zM481.5 1194 q-8.5 47 10.5 82q32 65 79 147q47 76 80 101q52 42 93 -5q35 -41 31 -106q-3 -53 -36 -80l-4 -2q-3 -3 -7 -11t-7 -11q-14 -19 -33 -52q-13 -19 -49 -94q-13 -23 -31 -37.5t-40.5 -17.5t-45.5 16q-32 23 -40.5 70z" />
<glyph unicode="&#x454;" horiz-adv-x="923" d="M42 339q-2 80 15 165q28 122 93.5 233.5t160 195.5t212.5 113t251 -14q50 -16 64 -80q13 -63 -17 -104t-84 -21q-72 21 -137 11t-125 -49t-107 -90.5t-83 -114.5q67 0 198.5 3t196.5 3q43 0 78 -21.5t35 -62.5q0 -38 -35.5 -60t-75.5 -22q-69 0 -412 -10q-6 -2 -18 -4.5 t-20.5 -6t-14.5 -8.5q-28 -92 32 -150.5t157 -58.5q96 2 264 64q49 19 82.5 -27.5t26.5 -109t-56 -80.5q-379 -142 -555 14q-59 56 -91.5 134t-34.5 158z" />
<glyph unicode="&#x455;" horiz-adv-x="696" d="M-81.5 89q-7.5 60 26.5 101.5t90 16.5q64 -27 139 -32t146.5 23t103.5 91q13 31 6 51.5t-35 46.5q-33 29 -114 80.5t-117 89.5q-64 70 -82.5 157.5t15.5 170t116 133.5q94 59 214.5 61t217.5 -51q47 -25 50 -95q3 -64 -32 -98q-34 -31 -81 -6q-42 23 -99.5 30t-116.5 -7 t-94 -49q-21 -18 -26 -36.5t5 -34.5t26.5 -31t41 -30t46.5 -27t45 -25t34 -23q125 -97 146 -193q27 -117 -14.5 -221t-143.5 -166q-111 -62 -227 -61.5t-234 53.5q-45 21 -52.5 81z" />
<glyph unicode="&#x456;" horiz-adv-x="440" d="M2 61q39 179 108.5 522t79.5 392q12 55 80 72q63 17 111 -10q44 -25 33 -72q-163 -790 -191 -914q-12 -55 -79 -72q-62 -15 -109 12q-44 25 -33 70zM236.5 1270.5q-14.5 54.5 5.5 97.5q15 36 60.5 60t96 21t76.5 -40q47 -57 47 -123q-7 -63 -42 -93.5t-103 -33.5 q-40 0 -88 31q-38 26 -52.5 80.5z" />
<glyph unicode="&#x457;" horiz-adv-x="587" d="M82 78q1 56 12 123.5t20.5 109.5t31.5 127t28 111q4 18 25.5 111.5t29.5 144.5q15 76 17 96v12q-12 23 -6 46t30 41.5t52 29.5t60 9t54 -19q10 -8 16.5 -17.5t10 -22.5t5 -22.5t0.5 -26.5t-1.5 -24.5t-3 -26t-2.5 -22.5q-6 -37 -15.5 -80t-21.5 -94t-18 -80 q-9 -41 -31 -125t-34.5 -136.5t-23.5 -125.5t-12 -133q0 -31 -23 -54t-55.5 -30t-65.5 -3.5t-56 25.5t-23 56zM205 1320q8 39 35 66q2 1 2 5q2 3 5 9t5 9q23 45 55 68q37 24 69 6.5t46 -53.5q16 -45 -4 -105q7 -71 -45 -113l6 7q-4 -5 -6 -7q0 -2 -2.5 -5.5t-3.5 -4.5 q-24 -28 -50 -37q-73 -15 -108 80q-12 36 -4 75zM465 1360q0 32 43 61q36 25 82 25q47 0 72 -25q24 -22 24 -59v18q0 -3 6 -57l6 -6l-2 2q15 -27 13 -49q-6 -40 -41 -58q-39 -28 -84 -28q-50 0 -74 24q-36 52 -43 92q0 12 -1 32t-1 28z" />
<glyph unicode="&#x458;" horiz-adv-x="397" d="M-285 -342q-3 42 17.5 71t58.5 23q57 -4 84 -2q10 0 18.5 3t16.5 10t14 13.5t12.5 18.5t10.5 19t9.5 22t7.5 20.5t7 20.5t6 17q36 113 91 374q28 125 75.5 361t57.5 286q14 69 65 77q43 8 76 -31q36 -40 23 -97q-24 -115 -72.5 -354.5t-75.5 -364.5q-2 -10 -16 -75 t-19.5 -87t-17.5 -71.5t-24 -86.5t-25 -73q-94 -247 -316 -221q-39 6 -61.5 43.5t-22.5 83.5zM238 1284q10 29 26 52t39 40t55.5 16t69.5 -22q38 -24 47 -64t-6.5 -77t-48 -67.5t-70.5 -37.5q-63 -9 -99 43t-13 117z" />
<glyph unicode="&#x459;" horiz-adv-x="1538" d="M-75 57q-16 68 11 113q25 42 74 25q25 -8 48.5 -8.5t43 5t37.5 17t33 26t29 34.5t24.5 39.5t21 43t17.5 43.5t15 43q15 46 29.5 103t21.5 90.5t22 109t19 95.5q-13 12 -19 32q-11 42 10.5 81.5t61.5 64.5q19 13 42 21.5t54.5 11.5t47.5 4t57 0.5t47 -0.5q32 0 88.5 -2 t102 -2t85.5 4q36 3 54.5 -21t16 -54.5t-8.5 -57.5q-72 -189 -105 -308q73 29 147 40t146 3t132 -49t93 -112q45 -100 25.5 -187.5t-85.5 -157.5t-152 -116.5t-175 -63.5q-125 -24 -207.5 4.5t-114.5 101t-41 159.5t12.5 202.5t46 206.5t59.5 193q-21 0 -65.5 1t-66.5 1 q-12 0 -33.5 1t-38.5 1t-32 -2q0 -4 -2 -12t-2 -13q-10 -45 -34.5 -169t-46 -209t-52.5 -163q-16 -40 -34.5 -76t-43.5 -73t-51.5 -66.5t-59.5 -53.5t-68.5 -36.5t-78 -12.5t-86.5 15q-53 18 -71 90zM858 379q-14 -211 113 -211q38 0 89 10.5t101.5 30.5t77 56t10.5 79 q-21 52 -70.5 77.5t-107 24t-114.5 -19.5t-99 -47z" />
<glyph unicode="&#x45a;" horiz-adv-x="1533" d="M84 115q25 140 90 426.5t90 435.5q12 70 60 85.5t86.5 -24.5t27.5 -102q-20 -125 -67 -334h24q23 0 31 -2q54 0 163.5 -2t166.5 -2q2 7 14.5 46t15.5 49.5t13 43t13.5 48.5t9.5 41.5t9 46t5 40.5q3 45 30.5 79t71.5 46q38 10 75 -7t34 -58q-6 -58 -22 -127.5t-29 -111.5 t-40 -122q49 4 88 5.5t95 0.5t97.5 -7.5t86.5 -22t72.5 -38.5t43.5 -60.5t11 -86.5q-10 -133 -92 -242.5t-206 -164t-253 -39.5q-64 8 -109 38.5t-68 73t-33 97.5t-7 108.5t14 110.5q0 12 4 14q-208 7 -376 4q-9 -50 -32.5 -160.5t-33.5 -168.5q-12 -70 -59 -85.5t-86 24.5 t-29 104zM901 410q-36 -182 29 -236q23 -21 80.5 -22t93.5 12q48 18 84 68t49 106q8 35 -11.5 48t-70.5 22q-94 13 -254 2z" />
<glyph unicode="&#x45b;" horiz-adv-x="1046" d="M88 113q98 328 168 694h-27q-54 0 -83 55.5t-14.5 110.5t67.5 55h104q10 54 26.5 155t24.5 144q8 37 42 66.5t71 19.5q38 -11 49 -50t2 -79q-33 -198 -43 -248q116 11 195 43q32 12 60.5 -1.5t43.5 -43t20 -62.5t-8.5 -62t-42.5 -40q-117 -43 -313 -61q-5 -29 -17 -83.5 t-16 -76.5q112 63 207 86q52 8 103 9.5t101 -20t77 -62.5q38 -53 38 -127.5t-21.5 -137.5t-47.5 -144.5t-31 -129.5q-5 -43 -31.5 -77t-66.5 -44q-37 -10 -72.5 6.5t-31.5 54.5q9 98 55 244q2 6 8 25.5t8.5 26.5t8.5 27.5t7 29t5 29t2.5 29t-0.5 28.5q-4 38 -48.5 47 t-76.5 -4q-111 -30 -248 -144q-2 0 -2 -2q-51 -191 -90 -325q-12 -41 -42.5 -69.5t-68.5 -20.5q-36 10 -50 51.5t-1 77.5z" />
<glyph unicode="&#x45c;" horiz-adv-x="958" d="M88 113q26 103 51 256.5t52 295t67 255.5q11 39 47 67.5t76 24.5q39 -3 54.5 -37t4.5 -72q-34 -90 -75 -293q56 15 110.5 57t90 86t84 105t79.5 92q43 44 109 33q56 -8 74 -46q16 -39 -25 -83q-39 -39 -99.5 -108.5t-113 -123.5t-105.5 -92q48 -63 126 -193t120 -187 q20 -29 16 -59t-28.5 -53.5t-54 -38t-61 -11t-48.5 27.5q-38 51 -128 200t-153 220h-20q-34 -220 -68 -340q-14 -56 -71 -79q-54 -22 -90 4q-38 28 -21 92zM558 1171.5q-17 33.5 1 67.5q12 23 66 96q7 7 17.5 20.5t12.5 16.5l2 2q13 33 47 54t72 24q40 0 67 -23.5t19 -62.5 q-3 -17 -14 -36.5t-18 -28t-27 -31.5q-19 -23 -37 -49q-4 -7 -6 -9t-6 -10q-19 -37 -60 -57.5t-82 -14.5q-37 8 -54 41.5z" />
<glyph unicode="&#x45e;" horiz-adv-x="937" d="M-37 -252q9 41 41.5 71t73.5 34q86 10 146.5 65.5t111.5 149.5q-82 165 -139 456q-5 23 -15.5 67t-17.5 80t-10 68q0 31 -7 78v12q-20 26 -21.5 62t19.5 70q28 39 62 53q14 6 32.5 -0.5t30.5 -18.5q7 -6 13.5 -15t10.5 -16t8 -19.5t5.5 -18.5t3.5 -21.5t2.5 -19 t2.5 -20.5l1 -17q8 -91 27 -186q4 -19 15.5 -73t17.5 -82t17 -72t22 -81.5t24 -72.5q17 34 84.5 165.5t100.5 202.5q15 34 39 104.5t48.5 122.5t61.5 91q74 82 135 41q31 -25 28.5 -68.5t-28.5 -73.5q-20 -22 -36 -53.5t-23 -52t-19 -62.5q-32 -90 -102 -223 q-134 -265 -215 -416q-31 -63 -52 -102t-56.5 -90t-73.5 -88q-123 -114 -301 -133q-39 -4 -58.5 31t-9.5 71zM276 1229q-2 43 20.5 79t61.5 48q50 17 107.5 19.5t136 -2.5t107.5 -5q52 -2 65.5 -57.5t-17 -110.5t-83.5 -55q-29 0 -96 5t-117 3t-94 -16q-36 -12 -61.5 21 t-29.5 71z" />
<glyph unicode="&#x45f;" horiz-adv-x="1017" d="M84 350q9 94 53 282.5t51 289.5q6 55 66 91q56 34 99 17q39 -15 34 -72q-9 -92 -47.5 -254.5t-46.5 -203.5q-1 -10 -7 -48t-7.5 -60.5t-0.5 -54.5t12.5 -55t33.5 -36q19 -14 50.5 -10t58.5 14t52 24q79 39 144 117q8 46 25 162.5t32 200t35 161.5q14 50 79 70 q63 21 106 -5q39 -25 26 -77q-37 -136 -75.5 -413t-72.5 -410q-14 -50 -79 -72q-63 -21 -107 3q-42 24 -27 79q1 6 4.5 18.5t4.5 18.5q-29 -24 -70 -43q-12 -178 -61 -442q-8 -39 -42.5 -71t-72.5 -28q-27 3 -43 23t-17.5 45.5t0.5 50.5q40 197 54 371q-71 -3 -127 28 q-72 38 -98 117t-19 172z" />
<glyph unicode="&#x490;" horiz-adv-x="1058" d="M87 -42q-12 45 3 87q102 367 168.5 654t103.5 571q-15 14 -21 35t1 43q12 30 37 49q6 37 35.5 57.5t66.5 7.5q25 -11 43 -35q282 0 441 11q9 24 20 72.5t14 60.5q28 89 84 153q28 29 65 24t56 -40q22 -41 16.5 -86t-34.5 -78q-23 -24 -37 -104q-2 -6 -5 -16.5t-5 -16.5 q18 -29 4 -68.5t-53 -60.5q-20 -31 -56 -38.5t-65 17.5q-139 -10 -422 -10q-36 -309 -109 -625t-184 -700q-12 -39 -50.5 -49t-68.5 14q-36 26 -48 71z" />
<glyph unicode="&#x491;" horiz-adv-x="823" d="M90 98q31 105 52 235t28 215t17 241q2 31 3 47q1 32 29 65.5t60 42.5l4 4q20 39 53 47q44 17 94 23t125.5 6.5t99.5 1.5q4 156 56 227q30 32 67.5 24t59.5 -42t25 -73t-15 -75q-9 -13 -12 -14l8 8v-6q-1 -5 -4 -19t-4 -22q0 -14 -5 -43v-47q0 -32 -18 -62t-47 -36 q-24 -42 -74 -51q-33 -4 -140.5 -5t-162.5 -16q-29 -436 -110 -698q-18 -56 -77 -78q-57 -21 -94 5q-39 29 -18 95z" />
<glyph unicode="&#x2000;" horiz-adv-x="927" />
<glyph unicode="&#x2001;" horiz-adv-x="1854" />
<glyph unicode="&#x2002;" horiz-adv-x="927" />
<glyph unicode="&#x2003;" horiz-adv-x="1854" />
<glyph unicode="&#x2004;" horiz-adv-x="618" />
<glyph unicode="&#x2005;" horiz-adv-x="463" />
<glyph unicode="&#x2006;" horiz-adv-x="309" />
<glyph unicode="&#x2007;" horiz-adv-x="309" />
<glyph unicode="&#x2008;" horiz-adv-x="231" />
<glyph unicode="&#x2009;" horiz-adv-x="370" />
<glyph unicode="&#x200a;" horiz-adv-x="103" />
<glyph unicode="&#x2010;" d="M43 643q-3 40 33.5 67t77.5 27h481q44 0 82 -21t39 -61q3 -39 -33.5 -65.5t-77.5 -26.5h-481q-45 0 -82.5 20t-38.5 60z" />
<glyph unicode="&#x2011;" d="M43 643q-3 40 33.5 67t77.5 27h481q44 0 82 -21t39 -61q3 -39 -33.5 -65.5t-77.5 -26.5h-481q-45 0 -82.5 20t-38.5 60z" />
<glyph unicode="&#x2012;" d="M43 643q-3 40 33.5 67t77.5 27h481q44 0 82 -21t39 -61q3 -39 -33.5 -65.5t-77.5 -26.5h-481q-45 0 -82.5 20t-38.5 60z" />
<glyph unicode="&#x2013;" horiz-adv-x="1017" d="M84 586q0 39 34 63t79 31q78 15 172 22t158 7t177.5 -2t163.5 -2q44 0 76.5 -17.5t32.5 -58.5q-3 -39 -40.5 -69t-76.5 -28q-52 0 -164 2t-177.5 2t-159.5 -6.5t-171 -21.5q-38 -6 -72.5 16.5t-31.5 61.5z" />
<glyph unicode="&#x2014;" horiz-adv-x="1560" d="M86 589q-14 52 17 104t81 52q145 0 582 -16.5t676 -5.5q63 3 75 -54q11 -53 -24 -106q-31 -48 -76 -51q-244 -10 -693.5 7t-563.5 18q-60 0 -74 52z" />
<glyph unicode="&#x2018;" horiz-adv-x="344" d="M161 1399l3 12q9 39 40 67t70 17q37 -10 50 -53t0 -76q-2 -10 -12 -45.5t-13 -56.5v-4q42 -20 43.5 -77t-33.5 -102t-84 -34q-154 34 -64 352z" />
<glyph unicode="&#x2019;" horiz-adv-x="344" d="M124.5 1361q-1.5 57 33.5 102t84 34q154 -34 64 -352l-3 -12q-9 -39 -40 -67t-70 -17q-37 10 -50 53t0 76q2 10 12 45.5t13 56.5v4q-42 20 -43.5 77z" />
<glyph unicode="&#x201a;" horiz-adv-x="432" d="M-33 84q-17 53 9.5 100t77 67.5t100.5 6.5q80 -21 121.5 -75t29.5 -136q-12 -116 -115 -223q-30 -34 -71.5 -47t-83.5 6q-36 19 -40.5 57.5t25.5 67.5q56 64 62 108v2q-39 -5 -71.5 11.5t-43.5 54.5z" />
<glyph unicode="&#x201c;" horiz-adv-x="626" d="M124 1294.5q8 65.5 42 126.5q20 40 72 42.5t95.5 -27t43.5 -70.5q0 -16 -12.5 -36.5t-19 -39.5t2.5 -73q0 -2 19 -20.5t27.5 -38t-9.5 -54.5q-22 -33 -68 -38.5t-81 13.5q-64 30 -92 90t-20 125.5zM408.5 1153q-6.5 33 0.5 88t13.5 82.5t20.5 76.5q2 8 3 11q9 39 40.5 67 t70.5 17q37 -10 49.5 -53t-0.5 -76q-2 -7 -11 -43.5t-13 -58.5v-4q42 -20 43.5 -77t-33.5 -102t-84 -34q-44 10 -68.5 41.5t-31 64.5z" />
<glyph unicode="&#x201d;" horiz-adv-x="626" d="M124.5 1361q-1.5 57 33.5 102t84 34q154 -34 64 -352l-3 -12q-9 -39 -40 -67t-70 -17q-37 10 -50 53t0 76q2 10 12 45.5t13 56.5v4q-42 20 -43.5 77zM355 1385.5q-8 19.5 10 54.5q22 33 68 38t81 -14q64 -30 92 -90t20 -125.5t-42 -126.5q-20 -40 -72 -42.5t-95.5 27.5 t-43.5 71q0 16 12.5 36.5t18.5 39.5t-3 73q0 2 -19 20.5t-27 38z" />
<glyph unicode="&#x201e;" horiz-adv-x="663" d="M-33.5 -148.5q-15.5 33.5 6.5 64.5q5 6 17.5 22.5t19 25.5t15 22.5t14.5 25.5t-23 37q-22 20 -18.5 45.5t19 47t34.5 34.5q36 24 77 24t73 -26q32 -28 44.5 -61t11 -61.5t-18.5 -66t-31 -60.5t-39 -58q-25 -37 -66 -53.5t-82 -6.5q-38 11 -53.5 44.5zM249.5 -110 q-10.5 33 14.5 67q35 35 47 82q-24 21 -30 47q-10 28 3 50.5t38 32.5t53 14t49 -5q70 -21 98.5 -69.5t7.5 -116.5q-21 -74 -79 -135q-27 -30 -74 -35t-82 16q-35 19 -45.5 52z" />
<glyph unicode="&#x2026;" horiz-adv-x="1263" d="M-39 43q0 15 4 28t12 24t15 18.5t21 16t21.5 13t24.5 12.5t23 11q59 29 111 12q24 -6 39 -25t12 -42q0 -64 -19 -91q-28 -37 -75 -54.5t-82.5 -15.5t-44.5 13q-26 6 -44.5 29.5t-17.5 50.5zM425.5 110q23.5 42 70 64.5t100.5 22.5t97.5 -47.5t15.5 -114.5q-1 -13 -39 -41 t-86.5 -45.5t-71.5 -1.5q-65 26 -86 61q-24 60 -0.5 102zM891 53q-4 20 20 48.5t50.5 47.5t27.5 15q56 21 113 -12q23 -14 40 -35.5t17 -44.5q5 -44 -36 -88.5t-87 -44.5q-48 -5 -96.5 25t-48.5 89z" />
<glyph unicode="&#x202f;" horiz-adv-x="370" />
<glyph unicode="&#x2039;" horiz-adv-x="1058" d="M42.5 626.5q-3.5 36.5 14 72t47.5 63.5q77 74 183 140t198 108t206 102t194 117q71 50 110 12q31 -31 17 -88q-13 -54 -60 -86q-142 -105 -407 -233q-181 -95 -213 -115q80 -40 254 -111t260 -114q28 -14 34.5 -46t-7 -66t-36.5 -64.5t-54 -42t-60 0.5q-76 38 -304 131.5 t-341 163.5q-32 19 -35.5 55.5z" />
<glyph unicode="&#x203a;" horiz-adv-x="1118" d="M52 285q-23 41 1 102q21 56 68 78q193 99 569 246q-56 27 -158 78t-185.5 91.5t-158.5 75.5q-29 13 -36.5 45.5t4.5 67t33 65.5t52 45.5t60 2.5q77 -36 226.5 -111.5t270.5 -131.5t236 -99q33 -14 39.5 -46.5t-8.5 -67t-42 -65.5t-56 -43q-116 -54 -393.5 -163.5 t-421.5 -182.5q-72 -37 -100 13z" />
<glyph unicode="&#x205f;" horiz-adv-x="463" />
<glyph unicode="&#x20ac;" horiz-adv-x="1181" d="M4 496q-13 57 19 112q31 54 83 54h113q0 5 2 14t2 14q-37 0 -55 -4q-33 -1 -56.5 22t-30.5 56t-4 66t23 56.5t52 24.5q25 2 135 7q1 3 4 9t5 11t3 10q61 135 153 245t211.5 184.5t256 87t286.5 -47.5q48 -22 55 -91q6 -65 -28 -103q-32 -35 -82 -13q-104 42 -197.5 38 t-179.5 -51.5t-153.5 -116.5t-120.5 -158q227 3 432 -11q52 -3 77 -60.5t7 -112.5t-70 -52q-206 14 -545 10q0 -2 -3 -15t-3 -19h428q51 0 63 -56q13 -57 -20 -112q-32 -53 -82 -54h-403q2 -6 2 -16q0 -4 2 -11t2 -10q5 -15 6 -16q2 -15 15 -45q2 0 6.5 -8t9 -16.5 t6.5 -10.5q9 -16 26.5 -35t30.5 -28q37 -28 97 -47q121 -36 317 -2q52 9 82 -44t16.5 -112t-65.5 -68q-231 -39 -373 6q-108 38 -183.5 110.5t-113.5 159.5t-51 193h-147q-50 0 -62 56z" />
<glyph unicode="&#x2122;" horiz-adv-x="1732" d="M51 1339q21 40 64.5 64t87.5 24q23 0 94.5 -0.5t105 0t91 2t105 6t95.5 11.5q43 7 76.5 -12t26.5 -60q-6 -40 -46.5 -70.5t-82.5 -37.5q-85 -14 -140 -17q-14 -73 -38.5 -221t-38.5 -221q-10 -55 -78 -86q-65 -29 -116 -11q-50 18 -40 74q60 341 82 459h-180 q-42 0 -64.5 29t-3.5 67zM743.5 700.5q-12.5 38.5 1.5 75.5q21 63 38.5 138.5t25.5 128.5t21 142.5t20 131.5q8 46 39.5 86.5t73.5 50.5q56 17 77 -37q23 -8 35 -37q28 -65 95 -175t85 -142q124 148 254 287q9 37 45 51q2 2 6.5 5t6.5 5q29 34 72 47t73 -12q30 -30 6 -84 q10 -26 11 -29q13 -102 -22.5 -297.5t-35.5 -275.5q0 -40 -42.5 -60t-80.5 -14q-45 5 -73.5 32t-28.5 70q1 45 7.5 92.5t21 120t18.5 93.5q-103 -118 -205 -244q-79 -97 -151 -74q-27 8 -34 38.5t5 57.5q-15 30 -33.5 63t-41.5 72t-36 62q-32 -180 -71 -297 q-11 -41 -49 -75.5t-80 -34.5q-41 0 -53.5 38.5z" />
<glyph unicode="&#x25fc;" horiz-adv-x="1075" d="M0 0v1075h1075v-1075h-1075z" />
</font>
</defs>
</svg>
